<svg xmlns="http://www.w3.org/2000/svg" xmlns:xlink="http://www.w3.org/1999/xlink" width="370" zoomAndPan="magnify" viewBox="0 0 277.5 116.249996" height="155" preserveAspectRatio="xMidYMid meet" version="1.0"><defs><g/><clipPath id="0588151938"><path d="M 0.640625 0 L 276.363281 0 L 276.363281 115.503906 L 0.640625 115.503906 Z M 0.640625 0 " clip-rule="nonzero"/></clipPath><clipPath id="09e54486ed"><path d="M 22.398438 19.113281 L 115.546875 19.113281 L 115.546875 82 L 22.398438 82 Z M 22.398438 19.113281 " clip-rule="nonzero"/></clipPath><clipPath id="3ca903c944"><path d="M 41 91 L 97 91 L 97 96.613281 L 41 96.613281 Z M 41 91 " clip-rule="nonzero"/></clipPath><clipPath id="335d05d439"><path d="M 85 39 L 89.257812 39 L 89.257812 43 L 85 43 Z M 85 39 " clip-rule="nonzero"/></clipPath><clipPath id="352d06115f"><path d="M 62 25.554688 L 66 25.554688 L 66 29 L 62 29 Z M 62 25.554688 " clip-rule="nonzero"/></clipPath><clipPath id="7afdbb8153"><path d="M 49.015625 49 L 53 49 L 53 53 L 49.015625 53 Z M 49.015625 49 " clip-rule="nonzero"/></clipPath><clipPath id="40159da3f5"><path d="M 72 62 L 76 62 L 76 65.796875 L 72 65.796875 Z M 72 62 " clip-rule="nonzero"/></clipPath></defs><g clip-path="url(#0588151938)"><path fill="#ffffff" d="M 0.640625 0 L 276.363281 0 L 276.363281 115.503906 L 0.640625 115.503906 Z M 0.640625 0 " fill-opacity="1" fill-rule="nonzero"/><path fill="#ffffff" d="M 0.640625 0 L 276.363281 0 L 276.363281 115.503906 L 0.640625 115.503906 Z M 0.640625 0 " fill-opacity="1" fill-rule="nonzero"/></g><g clip-path="url(#09e54486ed)"><path fill="#1b1919" d="M 111.480469 68.980469 L 26.460938 68.980469 L 26.460938 23.59375 C 26.460938 23.390625 26.628906 23.230469 26.828125 23.230469 L 111.117188 23.230469 C 111.316406 23.230469 111.480469 23.390625 111.480469 23.59375 Z M 78.292969 77.773438 C 77.855469 78.210938 77.25 78.484375 76.582031 78.484375 L 61.363281 78.484375 C 60.027344 78.484375 58.941406 77.394531 58.941406 76.050781 C 58.941406 75.378906 59.214844 74.769531 59.652344 74.328125 C 60.089844 73.886719 60.695312 73.617188 61.363281 73.617188 L 76.582031 73.617188 C 77.917969 73.617188 79 74.707031 79 76.050781 C 79 76.722656 78.730469 77.332031 78.292969 77.773438 Z M 111.117188 19.140625 L 26.828125 19.140625 C 24.386719 19.140625 22.394531 21.140625 22.394531 23.59375 L 22.394531 77.507812 C 22.394531 79.964844 24.386719 81.964844 26.828125 81.964844 L 111.117188 81.964844 C 113.558594 81.964844 115.546875 79.964844 115.546875 77.507812 L 115.546875 23.59375 C 115.546875 21.140625 113.558594 19.140625 111.117188 19.140625 " fill-opacity="1" fill-rule="nonzero"/></g><path fill="#1b1919" d="M 77.78125 76.050781 C 77.78125 76.375 77.65625 76.675781 77.429688 76.90625 C 77.203125 77.132812 76.902344 77.261719 76.582031 77.261719 L 61.363281 77.261719 C 60.703125 77.261719 60.164062 76.714844 60.164062 76.050781 C 60.164062 75.726562 60.285156 75.425781 60.515625 75.191406 C 60.742188 74.96875 61.042969 74.839844 61.363281 74.839844 L 76.582031 74.839844 C 77.242188 74.839844 77.78125 75.382812 77.78125 76.050781 " fill-opacity="1" fill-rule="nonzero"/><g clip-path="url(#3ca903c944)"><path fill="#1b1919" d="M 96.367188 96.574219 L 41.578125 96.574219 C 42.667969 93.367188 45.695312 91.054688 49.25 91.054688 L 88.699219 91.054688 C 92.253906 91.054688 95.277344 93.367188 96.367188 96.574219 " fill-opacity="1" fill-rule="nonzero"/></g><path fill="#1b1919" d="M 79.402344 89.574219 L 58.546875 89.574219 L 60.597656 83.441406 L 77.347656 83.441406 L 79.402344 89.574219 " fill-opacity="1" fill-rule="nonzero"/><path fill="#1b1919" d="M 68.601562 54.632812 C 66.136719 54.632812 61.902344 54.460938 61.21875 53.289062 C 60.628906 52.273438 60.398438 48.386719 60.382812 45.363281 C 60.371094 43.355469 60.433594 38.597656 61.296875 37.820312 C 62.230469 36.976562 67.988281 36.933594 69.132812 36.933594 C 70.683594 36.933594 75.816406 36.996094 76.792969 37.8125 C 77.71875 38.585938 77.808594 42.953125 77.777344 45.484375 C 77.75 47.945312 77.523438 52.359375 76.863281 53.316406 C 75.976562 54.597656 69.351562 54.632812 68.601562 54.632812 Z M 69.132812 37.71875 C 64.613281 37.71875 62.136719 38.117188 61.820312 38.402344 C 61.554688 38.65625 61.136719 40.769531 61.164062 45.375 C 61.1875 48.984375 61.503906 52.214844 61.898438 52.894531 C 62.113281 53.265625 64.121094 53.851562 68.601562 53.851562 C 73.070312 53.851562 75.941406 53.269531 76.21875 52.871094 C 76.5625 52.371094 76.949219 49.46875 76.996094 45.476562 C 77.050781 40.804688 76.589844 38.664062 76.289062 38.410156 C 75.886719 38.074219 73.242188 37.71875 69.132812 37.71875 Z M 69.132812 37.71875 " fill-opacity="1" fill-rule="nonzero"/><path fill="#1b1919" d="M 82.246094 48.820312 L 77.390625 48.820312 C 77.175781 48.820312 77 48.644531 77 48.425781 C 77 48.210938 77.175781 48.035156 77.390625 48.035156 L 82.246094 48.035156 C 82.460938 48.035156 82.636719 48.210938 82.636719 48.425781 C 82.636719 48.644531 82.460938 48.820312 82.246094 48.820312 Z M 82.246094 48.820312 " fill-opacity="1" fill-rule="nonzero"/><path fill="#1b1919" d="M 82.246094 41.097656 L 77.390625 41.097656 C 77.175781 41.097656 77 40.921875 77 40.707031 C 77 40.488281 77.175781 40.3125 77.390625 40.3125 L 82.246094 40.3125 C 82.460938 40.3125 82.636719 40.488281 82.636719 40.707031 C 82.636719 40.921875 82.460938 41.097656 82.246094 41.097656 Z M 82.246094 41.097656 " fill-opacity="1" fill-rule="nonzero"/><path fill="#1b1919" d="M 80.367188 43.714844 L 77.671875 43.714844 C 77.453125 43.714844 77.277344 43.539062 77.277344 43.320312 C 77.277344 43.105469 77.453125 42.929688 77.671875 42.929688 L 80.367188 42.929688 C 80.585938 42.929688 80.761719 43.105469 80.761719 43.320312 C 80.761719 43.539062 80.585938 43.714844 80.367188 43.714844 Z M 80.367188 43.714844 " fill-opacity="1" fill-rule="nonzero"/><path fill="#1b1919" d="M 82.796875 46.480469 L 77.390625 46.480469 C 77.175781 46.480469 77 46.308594 77 46.089844 C 77 45.875 77.175781 45.699219 77.390625 45.699219 L 82.476562 45.699219 L 86.503906 41.734375 C 86.660156 41.582031 86.90625 41.585938 87.058594 41.738281 C 87.210938 41.894531 87.207031 42.140625 87.054688 42.292969 Z M 82.796875 46.480469 " fill-opacity="1" fill-rule="nonzero"/><path fill="#1b1919" d="M 83.476562 51.089844 L 77.390625 51.089844 C 77.175781 51.089844 77 50.914062 77 50.699219 C 77 50.484375 77.175781 50.308594 77.390625 50.308594 L 83.476562 50.308594 C 83.691406 50.308594 83.867188 50.484375 83.867188 50.699219 C 83.867188 50.914062 83.691406 51.089844 83.476562 51.089844 Z M 83.476562 51.089844 " fill-opacity="1" fill-rule="nonzero"/><path fill="#1b1919" d="M 84.707031 52.324219 C 83.8125 52.324219 83.085938 51.59375 83.085938 50.699219 C 83.085938 49.804688 83.8125 49.074219 84.707031 49.074219 C 85.601562 49.074219 86.332031 49.804688 86.332031 50.699219 C 86.332031 51.59375 85.601562 52.324219 84.707031 52.324219 Z M 84.707031 49.859375 C 84.246094 49.859375 83.867188 50.234375 83.867188 50.699219 C 83.867188 51.164062 84.246094 51.539062 84.707031 51.539062 C 85.171875 51.539062 85.546875 51.164062 85.546875 50.699219 C 85.546875 50.234375 85.171875 49.859375 84.707031 49.859375 Z M 84.707031 49.859375 " fill-opacity="1" fill-rule="nonzero"/><g clip-path="url(#335d05d439)"><path fill="#1b1919" d="M 87.515625 42.429688 C 86.621094 42.429688 85.894531 41.703125 85.894531 40.808594 C 85.894531 39.914062 86.621094 39.183594 87.515625 39.183594 C 88.410156 39.183594 89.140625 39.914062 89.140625 40.808594 C 89.140625 41.703125 88.410156 42.429688 87.515625 42.429688 Z M 87.515625 39.96875 C 87.054688 39.96875 86.675781 40.34375 86.675781 40.808594 C 86.675781 41.269531 87.054688 41.648438 87.515625 41.648438 C 87.980469 41.648438 88.355469 41.269531 88.355469 40.808594 C 88.355469 40.34375 87.980469 39.96875 87.515625 39.96875 Z M 87.515625 39.96875 " fill-opacity="1" fill-rule="nonzero"/></g><path fill="#1b1919" d="M 71.753906 37.703125 C 71.539062 37.703125 71.363281 37.527344 71.363281 37.3125 L 71.363281 32.457031 C 71.363281 32.242188 71.539062 32.066406 71.753906 32.066406 C 71.972656 32.066406 72.148438 32.242188 72.148438 32.457031 L 72.148438 37.3125 C 72.148438 37.527344 71.972656 37.703125 71.753906 37.703125 Z M 71.753906 37.703125 " fill-opacity="1" fill-rule="nonzero"/><path fill="#1b1919" d="M 64.035156 37.703125 C 63.816406 37.703125 63.644531 37.527344 63.644531 37.3125 L 63.644531 32.457031 C 63.644531 32.242188 63.816406 32.066406 64.035156 32.066406 C 64.25 32.066406 64.425781 32.242188 64.425781 32.457031 L 64.425781 37.3125 C 64.425781 37.527344 64.25 37.703125 64.035156 37.703125 Z M 64.035156 37.703125 " fill-opacity="1" fill-rule="nonzero"/><path fill="#1b1919" d="M 66.648438 37.425781 C 66.433594 37.425781 66.257812 37.25 66.257812 37.03125 L 66.257812 34.335938 C 66.257812 34.117188 66.433594 33.941406 66.648438 33.941406 C 66.867188 33.941406 67.042969 34.117188 67.042969 34.335938 L 67.042969 37.03125 C 67.042969 37.25 66.867188 37.425781 66.648438 37.425781 Z M 66.648438 37.425781 " fill-opacity="1" fill-rule="nonzero"/><path fill="#1b1919" d="M 69.417969 37.703125 C 69.203125 37.703125 69.027344 37.527344 69.027344 37.3125 L 69.027344 32.226562 L 65.0625 28.199219 C 64.910156 28.042969 64.914062 27.796875 65.066406 27.644531 C 65.222656 27.492188 65.46875 27.492188 65.621094 27.648438 L 69.808594 31.90625 L 69.808594 37.3125 C 69.808594 37.527344 69.636719 37.703125 69.417969 37.703125 Z M 69.417969 37.703125 " fill-opacity="1" fill-rule="nonzero"/><path fill="#1b1919" d="M 74.027344 37.703125 C 73.8125 37.703125 73.636719 37.527344 73.636719 37.3125 L 73.636719 31.226562 C 73.636719 31.011719 73.8125 30.835938 74.027344 30.835938 C 74.242188 30.835938 74.417969 31.011719 74.417969 31.226562 L 74.417969 37.3125 C 74.417969 37.527344 74.242188 37.703125 74.027344 37.703125 Z M 74.027344 37.703125 " fill-opacity="1" fill-rule="nonzero"/><path fill="#1b1919" d="M 74.027344 31.617188 C 73.132812 31.617188 72.402344 30.890625 72.402344 29.996094 C 72.402344 29.097656 73.132812 28.371094 74.027344 28.371094 C 74.921875 28.371094 75.652344 29.097656 75.652344 29.996094 C 75.652344 30.890625 74.921875 31.617188 74.027344 31.617188 Z M 74.027344 29.15625 C 73.5625 29.15625 73.1875 29.53125 73.1875 29.996094 C 73.1875 30.457031 73.5625 30.835938 74.027344 30.835938 C 74.492188 30.835938 74.867188 30.457031 74.867188 29.996094 C 74.867188 29.53125 74.492188 29.15625 74.027344 29.15625 Z M 74.027344 29.15625 " fill-opacity="1" fill-rule="nonzero"/><g clip-path="url(#352d06115f)"><path fill="#1b1919" d="M 64.136719 28.808594 C 63.242188 28.808594 62.511719 28.082031 62.511719 27.1875 C 62.511719 26.289062 63.242188 25.5625 64.136719 25.5625 C 65.03125 25.5625 65.757812 26.289062 65.757812 27.1875 C 65.757812 28.082031 65.03125 28.808594 64.136719 28.808594 Z M 64.136719 26.347656 C 63.671875 26.347656 63.296875 26.722656 63.296875 27.1875 C 63.296875 27.648438 63.671875 28.027344 64.136719 28.027344 C 64.597656 28.027344 64.976562 27.648438 64.976562 27.1875 C 64.976562 26.722656 64.597656 26.347656 64.136719 26.347656 Z M 64.136719 26.347656 " fill-opacity="1" fill-rule="nonzero"/></g><path fill="#1b1919" d="M 60.78125 43.53125 L 55.925781 43.53125 C 55.710938 43.53125 55.535156 43.355469 55.535156 43.140625 C 55.535156 42.921875 55.710938 42.746094 55.925781 42.746094 L 60.78125 42.746094 C 60.996094 42.746094 61.171875 42.921875 61.171875 43.140625 C 61.171875 43.355469 60.996094 43.53125 60.78125 43.53125 Z M 60.78125 43.53125 " fill-opacity="1" fill-rule="nonzero"/><path fill="#1b1919" d="M 60.78125 51.25 L 55.925781 51.25 C 55.710938 51.25 55.535156 51.074219 55.535156 50.859375 C 55.535156 50.640625 55.710938 50.46875 55.925781 50.46875 L 60.78125 50.46875 C 60.996094 50.46875 61.171875 50.640625 61.171875 50.859375 C 61.171875 51.074219 60.996094 51.25 60.78125 51.25 Z M 60.78125 51.25 " fill-opacity="1" fill-rule="nonzero"/><path fill="#1b1919" d="M 60.5 48.636719 L 57.800781 48.636719 C 57.585938 48.636719 57.410156 48.460938 57.410156 48.246094 C 57.410156 48.027344 57.585938 47.851562 57.800781 47.851562 L 60.5 47.851562 C 60.714844 47.851562 60.890625 48.027344 60.890625 48.246094 C 60.890625 48.460938 60.714844 48.636719 60.5 48.636719 Z M 60.5 48.636719 " fill-opacity="1" fill-rule="nonzero"/><path fill="#1b1919" d="M 51.390625 49.945312 C 51.289062 49.945312 51.1875 49.90625 51.113281 49.828125 C 50.960938 49.671875 50.960938 49.425781 51.117188 49.273438 L 55.375 45.082031 L 60.78125 45.082031 C 60.996094 45.082031 61.171875 45.257812 61.171875 45.476562 C 61.171875 45.691406 60.996094 45.867188 60.78125 45.867188 L 55.695312 45.867188 L 51.664062 49.832031 C 51.589844 49.90625 51.488281 49.945312 51.390625 49.945312 Z M 51.390625 49.945312 " fill-opacity="1" fill-rule="nonzero"/><path fill="#1b1919" d="M 60.78125 41.257812 L 54.695312 41.257812 C 54.476562 41.257812 54.300781 41.082031 54.300781 40.867188 C 54.300781 40.648438 54.476562 40.472656 54.695312 40.472656 L 60.78125 40.472656 C 60.996094 40.472656 61.171875 40.648438 61.171875 40.867188 C 61.171875 41.082031 60.996094 41.257812 60.78125 41.257812 Z M 60.78125 41.257812 " fill-opacity="1" fill-rule="nonzero"/><path fill="#1b1919" d="M 53.460938 42.488281 C 52.566406 42.488281 51.839844 41.761719 51.839844 40.867188 C 51.839844 39.972656 52.566406 39.242188 53.460938 39.242188 C 54.359375 39.242188 55.085938 39.972656 55.085938 40.867188 C 55.085938 41.761719 54.359375 42.488281 53.460938 42.488281 Z M 53.460938 40.027344 C 53 40.027344 52.621094 40.402344 52.621094 40.867188 C 52.621094 41.328125 53 41.707031 53.460938 41.707031 C 53.925781 41.707031 54.300781 41.328125 54.300781 40.867188 C 54.300781 40.402344 53.925781 40.027344 53.460938 40.027344 Z M 53.460938 40.027344 " fill-opacity="1" fill-rule="nonzero"/><g clip-path="url(#7afdbb8153)"><path fill="#1b1919" d="M 50.652344 52.382812 C 49.757812 52.382812 49.03125 51.652344 49.03125 50.757812 C 49.03125 49.863281 49.757812 49.132812 50.652344 49.132812 C 51.550781 49.132812 52.277344 49.863281 52.277344 50.757812 C 52.277344 51.652344 51.550781 52.382812 50.652344 52.382812 Z M 50.652344 49.917969 C 50.191406 49.917969 49.8125 50.292969 49.8125 50.757812 C 49.8125 51.222656 50.191406 51.597656 50.652344 51.597656 C 51.117188 51.597656 51.492188 51.222656 51.492188 50.757812 C 51.492188 50.292969 51.117188 49.917969 50.652344 49.917969 Z M 50.652344 49.917969 " fill-opacity="1" fill-rule="nonzero"/></g><path fill="#1b1919" d="M 66.414062 59.5 C 66.199219 59.5 66.023438 59.324219 66.023438 59.105469 L 66.023438 54.253906 C 66.023438 54.035156 66.199219 53.863281 66.414062 53.863281 C 66.632812 53.863281 66.808594 54.035156 66.808594 54.253906 L 66.808594 59.105469 C 66.808594 59.324219 66.632812 59.5 66.414062 59.5 Z M 66.414062 59.5 " fill-opacity="1" fill-rule="nonzero"/><path fill="#1b1919" d="M 74.136719 59.5 C 73.917969 59.5 73.742188 59.324219 73.742188 59.105469 L 73.742188 54.253906 C 73.742188 54.035156 73.917969 53.863281 74.136719 53.863281 C 74.351562 53.863281 74.527344 54.035156 74.527344 54.253906 L 74.527344 59.105469 C 74.527344 59.324219 74.351562 59.5 74.136719 59.5 Z M 74.136719 59.5 " fill-opacity="1" fill-rule="nonzero"/><path fill="#1b1919" d="M 71.519531 57.621094 C 71.304688 57.621094 71.128906 57.449219 71.128906 57.230469 L 71.128906 54.535156 C 71.128906 54.316406 71.304688 54.140625 71.519531 54.140625 C 71.738281 54.140625 71.914062 54.316406 71.914062 54.535156 L 71.914062 57.230469 C 71.914062 57.445312 71.738281 57.621094 71.519531 57.621094 Z M 71.519531 57.621094 " fill-opacity="1" fill-rule="nonzero"/><path fill="#1b1919" d="M 72.828125 64.035156 C 72.726562 64.035156 72.625 63.996094 72.546875 63.917969 L 68.359375 59.660156 L 68.359375 54.253906 C 68.359375 54.039062 68.535156 53.863281 68.75 53.863281 C 68.96875 53.863281 69.144531 54.035156 69.144531 54.253906 L 69.144531 59.339844 L 73.109375 63.367188 C 73.257812 63.523438 73.257812 63.769531 73.101562 63.921875 C 73.027344 63.996094 72.925781 64.035156 72.828125 64.035156 Z M 72.828125 64.035156 " fill-opacity="1" fill-rule="nonzero"/><path fill="#1b1919" d="M 64.144531 60.730469 C 63.925781 60.730469 63.75 60.554688 63.75 60.339844 L 63.75 54.253906 C 63.75 54.035156 63.925781 53.863281 64.144531 53.863281 C 64.359375 53.863281 64.535156 54.035156 64.535156 54.253906 L 64.535156 60.339844 C 64.535156 60.554688 64.359375 60.730469 64.144531 60.730469 Z M 64.144531 60.730469 " fill-opacity="1" fill-rule="nonzero"/><path fill="#1b1919" d="M 64.144531 63.195312 C 63.246094 63.195312 62.519531 62.464844 62.519531 61.570312 C 62.519531 60.675781 63.246094 59.945312 64.144531 59.945312 C 65.039062 59.945312 65.765625 60.675781 65.765625 61.570312 C 65.765625 62.464844 65.039062 63.195312 64.144531 63.195312 Z M 64.144531 60.730469 C 63.679688 60.730469 63.304688 61.109375 63.304688 61.570312 C 63.304688 62.035156 63.679688 62.410156 64.144531 62.410156 C 64.605469 62.410156 64.984375 62.035156 64.984375 61.570312 C 64.984375 61.109375 64.605469 60.730469 64.144531 60.730469 Z M 64.144531 60.730469 " fill-opacity="1" fill-rule="nonzero"/><g clip-path="url(#40159da3f5)"><path fill="#1b1919" d="M 74.035156 66.003906 C 73.140625 66.003906 72.410156 65.273438 72.410156 64.378906 C 72.410156 63.484375 73.140625 62.757812 74.035156 62.757812 C 74.929688 62.757812 75.65625 63.484375 75.65625 64.378906 C 75.65625 65.273438 74.929688 66.003906 74.035156 66.003906 Z M 74.035156 63.539062 C 73.570312 63.539062 73.195312 63.917969 73.195312 64.378906 C 73.195312 64.84375 73.570312 65.21875 74.035156 65.21875 C 74.496094 65.21875 74.875 64.84375 74.875 64.378906 C 74.875 63.917969 74.496094 63.539062 74.035156 63.539062 Z M 74.035156 63.539062 " fill-opacity="1" fill-rule="nonzero"/></g><path fill="#1b1919" d="M 68.894531 47.402344 C 67.976562 47.402344 67.234375 46.65625 67.234375 45.742188 C 67.234375 44.828125 67.976562 44.082031 68.894531 44.082031 C 69.808594 44.082031 70.550781 44.828125 70.550781 45.742188 C 70.550781 46.65625 69.808594 47.402344 68.894531 47.402344 Z M 68.894531 44.867188 C 68.410156 44.867188 68.019531 45.261719 68.019531 45.742188 C 68.019531 46.226562 68.410156 46.617188 68.894531 46.617188 C 69.375 46.617188 69.769531 46.226562 69.769531 45.742188 C 69.769531 45.261719 69.375 44.867188 68.894531 44.867188 Z M 68.894531 44.867188 " fill-opacity="1" fill-rule="nonzero"/><path fill="#1b1919" d="M 69.113281 50.808594 C 68.902344 50.808594 68.382812 50.777344 68.144531 50.503906 C 68.070312 50.421875 67.941406 50.269531 67.859375 49.382812 C 67.695312 49.335938 67.535156 49.277344 67.375 49.207031 C 66.742188 49.714844 66.527344 49.75 66.433594 49.765625 C 66.402344 49.773438 66.367188 49.777344 66.335938 49.777344 C 65.988281 49.777344 65.660156 49.476562 65.496094 49.300781 C 65.332031 49.125 65.058594 48.78125 65.082031 48.457031 C 65.089844 48.316406 65.140625 48.121094 65.582031 47.574219 C 65.476562 47.386719 65.390625 47.1875 65.320312 46.984375 C 64.710938 46.90625 64.503906 46.808594 64.390625 46.726562 C 64.191406 46.585938 64.078125 46.316406 64.058594 45.929688 C 64.054688 45.796875 64.035156 45.128906 64.363281 44.847656 C 64.464844 44.753906 64.632812 44.65625 65.292969 44.582031 C 65.363281 44.363281 65.453125 44.15625 65.558594 43.953125 C 65.195312 43.480469 65.121094 43.269531 65.097656 43.136719 C 65.058594 42.910156 65.15625 42.65625 65.382812 42.390625 C 65.574219 42.164062 65.996094 41.78125 66.367188 41.78125 C 66.382812 41.78125 66.394531 41.78125 66.40625 41.78125 C 66.550781 41.792969 66.753906 41.84375 67.316406 42.304688 C 67.496094 42.222656 67.679688 42.152344 67.871094 42.101562 C 67.964844 41.339844 68.082031 41.171875 68.136719 41.09375 C 68.335938 40.816406 68.742188 40.761719 69.050781 40.761719 C 69.261719 40.761719 69.78125 40.789062 70.019531 41.0625 C 70.09375 41.148438 70.226562 41.304688 70.308594 42.234375 C 70.445312 42.289062 70.578125 42.351562 70.707031 42.421875 C 71.402344 41.855469 71.636719 41.816406 71.730469 41.800781 C 71.761719 41.796875 71.796875 41.792969 71.828125 41.792969 C 72.171875 41.792969 72.503906 42.089844 72.667969 42.265625 C 72.832031 42.441406 73.105469 42.785156 73.082031 43.109375 C 73.074219 43.222656 73.058594 43.449219 72.367188 44.25 C 72.40625 44.351562 72.445312 44.453125 72.480469 44.542969 C 72.933594 44.582031 73.527344 44.667969 73.769531 44.839844 C 73.972656 44.984375 74.082031 45.253906 74.101562 45.640625 C 74.109375 45.769531 74.125 46.441406 73.800781 46.722656 C 73.714844 46.796875 73.539062 46.949219 72.453125 47.023438 C 72.417969 47.121094 72.382812 47.214844 72.351562 47.296875 C 72.644531 47.644531 73.015625 48.132812 73.066406 48.433594 C 73.101562 48.660156 73.007812 48.910156 72.78125 49.179688 C 72.589844 49.40625 72.167969 49.785156 71.792969 49.785156 C 71.78125 49.785156 71.769531 49.785156 71.753906 49.785156 C 71.644531 49.777344 71.421875 49.761719 70.644531 49.09375 C 70.539062 49.152344 70.425781 49.203125 70.316406 49.25 C 70.226562 50.191406 70.078125 50.402344 70.023438 50.472656 C 69.828125 50.75 69.421875 50.808594 69.113281 50.808594 Z M 68.742188 49.976562 C 68.808594 49.996094 68.945312 50.023438 69.113281 50.023438 C 69.261719 50.023438 69.355469 50.003906 69.398438 49.988281 C 69.445312 49.859375 69.515625 49.46875 69.554688 48.9375 L 69.574219 48.675781 L 69.824219 48.59375 C 70.054688 48.519531 70.277344 48.414062 70.484375 48.285156 L 70.734375 48.125 L 70.957031 48.324219 C 71.394531 48.71875 71.683594 48.925781 71.804688 48.988281 C 71.957031 48.917969 72.21875 48.667969 72.28125 48.535156 C 72.210938 48.386719 71.910156 47.980469 71.605469 47.632812 L 71.441406 47.449219 L 71.535156 47.222656 C 71.539062 47.21875 71.714844 46.792969 71.78125 46.542969 L 71.859375 46.273438 L 72.140625 46.257812 C 72.703125 46.230469 73.121094 46.171875 73.273438 46.125 C 73.332031 45.96875 73.339844 45.605469 73.289062 45.46875 C 73.136719 45.410156 72.636719 45.335938 72.171875 45.308594 L 71.910156 45.289062 L 71.824219 45.042969 C 71.78125 44.914062 71.648438 44.539062 71.554688 44.363281 L 71.429688 44.121094 L 71.613281 43.921875 C 72.011719 43.476562 72.222656 43.183594 72.289062 43.058594 C 72.214844 42.910156 71.96875 42.648438 71.832031 42.585938 C 71.726562 42.636719 71.4375 42.824219 71 43.199219 L 70.777344 43.390625 L 70.53125 43.230469 C 70.308594 43.085938 70.066406 42.96875 69.816406 42.890625 L 69.5625 42.808594 L 69.542969 42.539062 C 69.507812 41.996094 69.457031 41.707031 69.421875 41.59375 C 69.355469 41.570312 69.21875 41.542969 69.050781 41.542969 C 68.902344 41.542969 68.808594 41.5625 68.765625 41.578125 C 68.734375 41.667969 68.671875 41.9375 68.625 42.453125 L 68.597656 42.746094 L 68.308594 42.800781 C 68.007812 42.859375 67.71875 42.964844 67.449219 43.113281 L 67.210938 43.246094 L 67.003906 43.066406 C 66.621094 42.738281 66.433594 42.621094 66.355469 42.578125 C 66.207031 42.648438 65.949219 42.898438 65.882812 43.03125 C 65.914062 43.09375 66.019531 43.28125 66.335938 43.671875 L 66.515625 43.894531 L 66.363281 44.132812 C 66.1875 44.410156 66.054688 44.714844 65.980469 45.039062 L 65.914062 45.3125 L 65.628906 45.335938 C 65.171875 45.375 64.96875 45.421875 64.890625 45.445312 C 64.832031 45.601562 64.824219 45.960938 64.875 46.101562 C 64.957031 46.128906 65.199219 46.1875 65.660156 46.234375 L 65.925781 46.261719 L 65.996094 46.519531 C 66.082031 46.832031 66.210938 47.125 66.390625 47.394531 L 66.554688 47.640625 L 66.363281 47.867188 C 66.035156 48.246094 65.917969 48.433594 65.875 48.507812 C 65.949219 48.660156 66.195312 48.917969 66.332031 48.984375 C 66.417969 48.941406 66.65625 48.792969 67.070312 48.445312 L 67.273438 48.277344 L 67.503906 48.398438 C 67.757812 48.53125 68.027344 48.628906 68.304688 48.683594 L 68.601562 48.742188 L 68.621094 49.042969 C 68.65625 49.578125 68.707031 49.863281 68.742188 49.976562 Z M 68.742188 49.976562 " fill-opacity="1" fill-rule="nonzero"/><g fill="#000000" fill-opacity="1"><g transform="translate(126.452297, 41.343537)"><g><path d="M 11.65625 -16.21875 C 11.945312 -16.207031 12.09375 -16.117188 12.09375 -15.953125 C 12.09375 -15.753906 11.9375 -15.53125 11.625 -15.28125 C 11.3125 -15.039062 11.035156 -14.921875 10.796875 -14.921875 C 9.660156 -14.921875 8.398438 -14.882812 7.015625 -14.8125 C 5.890625 -10.300781 5.109375 -6.117188 4.671875 -2.265625 C 4.847656 -2.253906 5 -2.210938 5.125 -2.140625 C 5.257812 -2.066406 5.328125 -1.96875 5.328125 -1.84375 C 5.328125 -1.6875 5.207031 -1.515625 4.96875 -1.328125 L 4.1875 -0.734375 C 4.09375 -0.640625 3.914062 -0.550781 3.65625 -0.46875 C 3.40625 -0.394531 3.164062 -0.359375 2.9375 -0.359375 C 2.53125 -0.359375 2.347656 -0.523438 2.390625 -0.859375 C 2.847656 -5.210938 3.691406 -9.789062 4.921875 -14.59375 L 4.90625 -14.671875 C 3.394531 -14.546875 1.984375 -14.398438 0.671875 -14.234375 C 0.472656 -14.210938 0.3125 -14.242188 0.1875 -14.328125 C 0.0703125 -14.410156 0.0234375 -14.546875 0.046875 -14.734375 C 0.0546875 -14.921875 0.171875 -15.070312 0.390625 -15.1875 C 0.609375 -15.3125 0.84375 -15.40625 1.09375 -15.46875 C 2.363281 -15.84375 3.78125 -16.09375 5.34375 -16.21875 L 5.46875 -16.5625 C 5.519531 -16.75 5.703125 -16.910156 6.015625 -17.046875 C 6.335938 -17.179688 6.648438 -17.25 6.953125 -17.25 C 7.148438 -17.25 7.304688 -17.207031 7.421875 -17.125 C 7.535156 -17.050781 7.570312 -16.941406 7.53125 -16.796875 L 7.40625 -16.34375 L 8.34375 -16.359375 C 9.3125 -16.359375 10.414062 -16.3125 11.65625 -16.21875 Z M 11.65625 -16.21875 "/></g></g></g><g fill="#000000" fill-opacity="1"><g transform="translate(136.106185, 41.343537)"><g><path d="M 8.703125 -12.953125 C 8.910156 -12.878906 9.007812 -12.738281 9 -12.53125 C 8.625 -8.976562 8.082031 -5.28125 7.375 -1.4375 C 7.3125 -1.175781 7.117188 -0.957031 6.796875 -0.78125 C 6.484375 -0.613281 6.171875 -0.53125 5.859375 -0.53125 C 5.660156 -0.53125 5.5 -0.570312 5.375 -0.65625 C 5.257812 -0.75 5.222656 -0.875 5.265625 -1.03125 C 5.578125 -2.40625 5.835938 -3.8125 6.046875 -5.25 C 6.265625 -6.695312 6.472656 -8.359375 6.671875 -10.234375 C 5.585938 -9.222656 4.503906 -8.125 3.421875 -6.9375 L 2.328125 -0.890625 C 2.273438 -0.640625 2.082031 -0.421875 1.75 -0.234375 C 1.414062 -0.046875 1.082031 0.046875 0.75 0.046875 C 0.550781 0.046875 0.398438 0.00390625 0.296875 -0.078125 C 0.191406 -0.171875 0.148438 -0.304688 0.171875 -0.484375 L 1.15625 -5.9375 C 0.988281 -5.976562 0.90625 -6.070312 0.90625 -6.21875 C 0.90625 -6.320312 0.96875 -6.453125 1.09375 -6.609375 L 1.328125 -6.9375 L 3.125 -16.640625 C 3.15625 -16.878906 3.335938 -17.082031 3.671875 -17.25 C 4.003906 -17.425781 4.328125 -17.515625 4.640625 -17.515625 C 4.828125 -17.515625 4.972656 -17.472656 5.078125 -17.390625 C 5.191406 -17.316406 5.234375 -17.207031 5.203125 -17.0625 L 3.9375 -9.875 C 4.914062 -10.851562 6.003906 -11.785156 7.203125 -12.671875 C 7.585938 -12.929688 7.945312 -13.0625 8.28125 -13.0625 C 8.4375 -13.0625 8.578125 -13.023438 8.703125 -12.953125 Z M 8.703125 -12.953125 "/></g></g></g><g fill="#000000" fill-opacity="1"><g transform="translate(145.938843, 41.343537)"><g><path d="M 5.734375 -11.421875 C 5.054688 -10.898438 4.507812 -10.066406 4.09375 -8.921875 C 5.382812 -9.410156 6.554688 -9.816406 7.609375 -10.140625 C 7.171875 -10.753906 6.726562 -11.164062 6.28125 -11.375 C 6.1875 -11.414062 6.09375 -11.441406 6 -11.453125 C 5.914062 -11.472656 5.867188 -11.484375 5.859375 -11.484375 C 5.867188 -11.460938 5.859375 -11.445312 5.828125 -11.4375 C 5.796875 -11.425781 5.765625 -11.421875 5.734375 -11.421875 Z M 5.8125 -12.828125 C 6.03125 -12.878906 6.257812 -12.90625 6.5 -12.90625 C 7.769531 -12.90625 8.921875 -12.050781 9.953125 -10.34375 C 9.992188 -10.289062 10.015625 -10.222656 10.015625 -10.140625 C 10.015625 -9.992188 9.921875 -9.84375 9.734375 -9.6875 C 9.585938 -9.53125 9.398438 -9.40625 9.171875 -9.3125 C 7.847656 -8.726562 6.007812 -8.035156 3.65625 -7.234375 C 3.519531 -6.554688 3.453125 -5.859375 3.453125 -5.140625 C 3.453125 -4.804688 3.457031 -4.566406 3.46875 -4.421875 C 3.5 -3.828125 3.617188 -3.3125 3.828125 -2.875 C 3.898438 -2.726562 4 -2.585938 4.125 -2.453125 C 4.25 -2.328125 4.34375 -2.242188 4.40625 -2.203125 C 4.445312 -2.179688 4.515625 -2.171875 4.609375 -2.171875 C 4.703125 -2.171875 4.8125 -2.195312 4.9375 -2.25 C 5.0625 -2.300781 5.203125 -2.375 5.359375 -2.46875 C 5.742188 -2.6875 6.101562 -2.941406 6.4375 -3.234375 C 6.769531 -3.523438 7.164062 -3.90625 7.625 -4.375 C 7.8125 -4.550781 8.125 -4.640625 8.5625 -4.640625 C 8.800781 -4.640625 9 -4.601562 9.15625 -4.53125 C 9.320312 -4.457031 9.40625 -4.359375 9.40625 -4.234375 C 9.40625 -4.109375 9.34375 -3.972656 9.21875 -3.828125 C 8.394531 -2.941406 7.550781 -2.1875 6.6875 -1.5625 C 5.832031 -0.945312 4.972656 -0.640625 4.109375 -0.640625 C 3.703125 -0.640625 3.316406 -0.722656 2.953125 -0.890625 C 2.359375 -1.171875 1.925781 -1.613281 1.65625 -2.21875 C 1.394531 -2.832031 1.265625 -3.550781 1.265625 -4.375 C 1.265625 -4.976562 1.347656 -5.691406 1.515625 -6.515625 L 1.34375 -6.46875 L 1.1875 -6.421875 C 0.988281 -6.347656 0.832031 -6.3125 0.71875 -6.3125 C 0.53125 -6.3125 0.382812 -6.359375 0.28125 -6.453125 C 0.175781 -6.546875 0.125 -6.664062 0.125 -6.8125 C 0.125 -6.976562 0.191406 -7.144531 0.328125 -7.3125 C 0.460938 -7.476562 0.671875 -7.613281 0.953125 -7.71875 L 1.921875 -8.109375 C 2.046875 -8.472656 2.226562 -8.953125 2.46875 -9.546875 C 2.832031 -10.367188 3.289062 -11.078125 3.84375 -11.671875 C 4.40625 -12.273438 5.0625 -12.660156 5.8125 -12.828125 Z M 5.8125 -12.828125 "/></g></g></g><g fill="#000000" fill-opacity="1"><g transform="translate(155.672178, 41.343537)"><g/></g></g><g fill="#000000" fill-opacity="1"><g transform="translate(161.154633, 41.343537)"><g><path d="M 11.875 -3.390625 C 12.34375 -3.734375 12.695312 -4.117188 12.9375 -4.546875 C 13.1875 -4.984375 13.3125 -5.421875 13.3125 -5.859375 C 13.3125 -6.285156 13.179688 -6.691406 12.921875 -7.078125 C 12.671875 -7.472656 12.296875 -7.820312 11.796875 -8.125 C 10.773438 -8.726562 9.65625 -9.03125 8.4375 -9.03125 C 7.40625 -9.03125 6.429688 -8.8125 5.515625 -8.375 C 5.203125 -6.851562 4.753906 -4.554688 4.171875 -1.484375 L 4.171875 -1.453125 C 5.867188 -1.515625 7.332031 -1.671875 8.5625 -1.921875 C 9.800781 -2.171875 10.90625 -2.660156 11.875 -3.390625 Z M 10.046875 -14 C 9.890625 -14.863281 9.367188 -15.296875 8.484375 -15.296875 C 8.054688 -15.296875 7.566406 -15.195312 7.015625 -15 C 6.765625 -13.957031 6.410156 -12.40625 5.953125 -10.34375 C 6.972656 -10.59375 7.914062 -11.015625 8.78125 -11.609375 C 9.65625 -12.210938 10.09375 -12.894531 10.09375 -13.65625 C 10.09375 -13.726562 10.078125 -13.84375 10.046875 -14 Z M 12.65625 -9.6875 C 13.488281 -9.320312 14.144531 -8.835938 14.625 -8.234375 C 15.101562 -7.640625 15.34375 -6.988281 15.34375 -6.28125 C 15.34375 -5.59375 15.117188 -4.914062 14.671875 -4.25 C 13.617188 -2.675781 12.039062 -1.570312 9.9375 -0.9375 C 7.84375 -0.300781 5.554688 0.015625 3.078125 0.015625 C 2.410156 0.015625 1.78125 -0.00390625 1.1875 -0.046875 C 0.882812 -0.0546875 0.734375 -0.144531 0.734375 -0.3125 C 0.734375 -0.5 0.894531 -0.71875 1.21875 -0.96875 C 1.539062 -1.21875 1.816406 -1.359375 2.046875 -1.390625 C 2.816406 -5.492188 3.703125 -9.648438 4.703125 -13.859375 C 4.546875 -13.816406 4.375 -13.796875 4.1875 -13.796875 C 3.976562 -13.796875 3.800781 -13.820312 3.65625 -13.875 C 3.519531 -13.9375 3.453125 -14.023438 3.453125 -14.140625 C 3.453125 -14.285156 3.570312 -14.460938 3.8125 -14.671875 C 4.132812 -14.953125 4.578125 -15.25 5.140625 -15.5625 C 5.140625 -15.601562 5.15625 -15.664062 5.1875 -15.75 C 5.25 -15.988281 5.445312 -16.191406 5.78125 -16.359375 C 6.125 -16.535156 6.453125 -16.625 6.765625 -16.625 C 7.023438 -16.625 7.1875 -16.570312 7.25 -16.46875 C 7.976562 -16.664062 8.617188 -16.765625 9.171875 -16.765625 C 10.617188 -16.765625 11.550781 -16.179688 11.96875 -15.015625 C 12.09375 -14.691406 12.15625 -14.378906 12.15625 -14.078125 C 12.15625 -13.398438 11.90625 -12.75 11.40625 -12.125 C 10.914062 -11.507812 10.257812 -10.941406 9.4375 -10.421875 C 10.582031 -10.378906 11.65625 -10.132812 12.65625 -9.6875 Z M 12.65625 -9.6875 "/></g></g></g><g fill="#000000" fill-opacity="1"><g transform="translate(176.767704, 41.343537)"><g><path d="M 5.734375 -11.421875 C 5.054688 -10.898438 4.507812 -10.066406 4.09375 -8.921875 C 5.382812 -9.410156 6.554688 -9.816406 7.609375 -10.140625 C 7.171875 -10.753906 6.726562 -11.164062 6.28125 -11.375 C 6.1875 -11.414062 6.09375 -11.441406 6 -11.453125 C 5.914062 -11.472656 5.867188 -11.484375 5.859375 -11.484375 C 5.867188 -11.460938 5.859375 -11.445312 5.828125 -11.4375 C 5.796875 -11.425781 5.765625 -11.421875 5.734375 -11.421875 Z M 5.8125 -12.828125 C 6.03125 -12.878906 6.257812 -12.90625 6.5 -12.90625 C 7.769531 -12.90625 8.921875 -12.050781 9.953125 -10.34375 C 9.992188 -10.289062 10.015625 -10.222656 10.015625 -10.140625 C 10.015625 -9.992188 9.921875 -9.84375 9.734375 -9.6875 C 9.585938 -9.53125 9.398438 -9.40625 9.171875 -9.3125 C 7.847656 -8.726562 6.007812 -8.035156 3.65625 -7.234375 C 3.519531 -6.554688 3.453125 -5.859375 3.453125 -5.140625 C 3.453125 -4.804688 3.457031 -4.566406 3.46875 -4.421875 C 3.5 -3.828125 3.617188 -3.3125 3.828125 -2.875 C 3.898438 -2.726562 4 -2.585938 4.125 -2.453125 C 4.25 -2.328125 4.34375 -2.242188 4.40625 -2.203125 C 4.445312 -2.179688 4.515625 -2.171875 4.609375 -2.171875 C 4.703125 -2.171875 4.8125 -2.195312 4.9375 -2.25 C 5.0625 -2.300781 5.203125 -2.375 5.359375 -2.46875 C 5.742188 -2.6875 6.101562 -2.941406 6.4375 -3.234375 C 6.769531 -3.523438 7.164062 -3.90625 7.625 -4.375 C 7.8125 -4.550781 8.125 -4.640625 8.5625 -4.640625 C 8.800781 -4.640625 9 -4.601562 9.15625 -4.53125 C 9.320312 -4.457031 9.40625 -4.359375 9.40625 -4.234375 C 9.40625 -4.109375 9.34375 -3.972656 9.21875 -3.828125 C 8.394531 -2.941406 7.550781 -2.1875 6.6875 -1.5625 C 5.832031 -0.945312 4.972656 -0.640625 4.109375 -0.640625 C 3.703125 -0.640625 3.316406 -0.722656 2.953125 -0.890625 C 2.359375 -1.171875 1.925781 -1.613281 1.65625 -2.21875 C 1.394531 -2.832031 1.265625 -3.550781 1.265625 -4.375 C 1.265625 -4.976562 1.347656 -5.691406 1.515625 -6.515625 L 1.34375 -6.46875 L 1.1875 -6.421875 C 0.988281 -6.347656 0.832031 -6.3125 0.71875 -6.3125 C 0.53125 -6.3125 0.382812 -6.359375 0.28125 -6.453125 C 0.175781 -6.546875 0.125 -6.664062 0.125 -6.8125 C 0.125 -6.976562 0.191406 -7.144531 0.328125 -7.3125 C 0.460938 -7.476562 0.671875 -7.613281 0.953125 -7.71875 L 1.921875 -8.109375 C 2.046875 -8.472656 2.226562 -8.953125 2.46875 -9.546875 C 2.832031 -10.367188 3.289062 -11.078125 3.84375 -11.671875 C 4.40625 -12.273438 5.0625 -12.660156 5.8125 -12.828125 Z M 5.8125 -12.828125 "/></g></g></g><g fill="#000000" fill-opacity="1"><g transform="translate(186.501039, 41.343537)"><g><path d="M 3.515625 -10.125 C 3.515625 -9.625 3.644531 -9.179688 3.90625 -8.796875 C 4.164062 -8.410156 4.476562 -8.082031 4.84375 -7.8125 C 5.21875 -7.550781 5.722656 -7.242188 6.359375 -6.890625 C 7.210938 -6.398438 7.867188 -5.957031 8.328125 -5.5625 C 8.785156 -5.164062 9.085938 -4.671875 9.234375 -4.078125 C 9.285156 -3.804688 9.3125 -3.613281 9.3125 -3.5 C 9.3125 -2.570312 8.820312 -1.90625 7.84375 -1.5 C 6.863281 -1.09375 5.753906 -0.890625 4.515625 -0.890625 C 4.015625 -0.890625 3.582031 -0.925781 3.21875 -1 C 2.78125 -1.070312 2.328125 -1.222656 1.859375 -1.453125 C 1.390625 -1.691406 1 -1.976562 0.6875 -2.3125 C 0.375 -2.644531 0.21875 -2.992188 0.21875 -3.359375 C 0.21875 -3.910156 0.648438 -4.421875 1.515625 -4.890625 C 1.742188 -5.003906 1.972656 -5.0625 2.203125 -5.0625 C 2.410156 -5.0625 2.582031 -5.015625 2.71875 -4.921875 C 2.863281 -4.828125 2.9375 -4.71875 2.9375 -4.59375 C 2.9375 -4.351562 2.742188 -4.117188 2.359375 -3.890625 C 2.285156 -3.847656 2.25 -3.789062 2.25 -3.71875 C 2.25 -3.550781 2.375 -3.351562 2.625 -3.125 C 2.875 -2.90625 3.070312 -2.757812 3.21875 -2.6875 C 3.613281 -2.457031 4.25 -2.316406 5.125 -2.265625 C 5.226562 -2.253906 5.414062 -2.25 5.6875 -2.25 C 6.15625 -2.25 6.535156 -2.328125 6.828125 -2.484375 C 7.117188 -2.640625 7.242188 -2.929688 7.203125 -3.359375 C 7.148438 -3.921875 6.578125 -4.5625 5.484375 -5.28125 L 4.71875 -5.765625 C 4.03125 -6.179688 3.460938 -6.550781 3.015625 -6.875 C 2.578125 -7.207031 2.195312 -7.597656 1.875 -8.046875 C 1.5625 -8.503906 1.40625 -9.019531 1.40625 -9.59375 C 1.40625 -9.945312 1.472656 -10.304688 1.609375 -10.671875 C 1.898438 -11.523438 2.441406 -12.1875 3.234375 -12.65625 C 4.023438 -13.125 4.878906 -13.359375 5.796875 -13.359375 C 6.734375 -13.359375 7.523438 -13.117188 8.171875 -12.640625 C 8.816406 -12.171875 9.140625 -11.5 9.140625 -10.625 C 9.140625 -10.34375 9.097656 -10.046875 9.015625 -9.734375 C 8.960938 -9.492188 8.765625 -9.285156 8.421875 -9.109375 C 8.078125 -8.941406 7.753906 -8.859375 7.453125 -8.859375 C 7.265625 -8.859375 7.117188 -8.894531 7.015625 -8.96875 C 6.921875 -9.050781 6.898438 -9.164062 6.953125 -9.3125 C 7.023438 -9.59375 7.0625 -9.867188 7.0625 -10.140625 C 7.0625 -10.578125 6.945312 -10.945312 6.71875 -11.25 C 6.5 -11.5625 6.171875 -11.773438 5.734375 -11.890625 C 5.492188 -11.941406 5.316406 -11.96875 5.203125 -11.96875 C 4.722656 -11.96875 4.320312 -11.800781 4 -11.46875 C 3.675781 -11.132812 3.515625 -10.6875 3.515625 -10.125 Z M 3.515625 -10.125 "/></g></g></g><g fill="#000000" fill-opacity="1"><g transform="translate(196.095332, 41.343537)"><g><path d="M 8.015625 -5.140625 C 8.109375 -5.234375 8.253906 -5.304688 8.453125 -5.359375 C 8.660156 -5.410156 8.863281 -5.4375 9.0625 -5.4375 C 9.550781 -5.4375 9.796875 -5.3125 9.796875 -5.0625 C 9.796875 -4.945312 9.726562 -4.816406 9.59375 -4.671875 C 9.4375 -4.484375 9.289062 -4.304688 9.15625 -4.140625 C 9.019531 -3.972656 8.898438 -3.820312 8.796875 -3.6875 C 8.210938 -2.9375 7.6875 -2.335938 7.21875 -1.890625 C 6.757812 -1.453125 6.21875 -1.132812 5.59375 -0.9375 C 5.300781 -0.84375 4.992188 -0.796875 4.671875 -0.796875 C 4.109375 -0.796875 3.628906 -0.953125 3.234375 -1.265625 C 2.847656 -1.585938 2.625 -2.050781 2.5625 -2.65625 C 2.53125 -2.832031 2.515625 -3.097656 2.515625 -3.453125 C 2.515625 -4.140625 2.59375 -4.84375 2.75 -5.5625 C 2.914062 -6.28125 3.148438 -7.171875 3.453125 -8.234375 L 3.6875 -9.09375 L 2.9375 -9.015625 C 2.570312 -8.984375 2.070312 -8.929688 1.4375 -8.859375 C 1.125 -8.816406 0.890625 -8.847656 0.734375 -8.953125 C 0.578125 -9.054688 0.5 -9.195312 0.5 -9.375 C 0.5 -9.570312 0.59375 -9.765625 0.78125 -9.953125 C 0.976562 -10.148438 1.226562 -10.257812 1.53125 -10.28125 L 4.09375 -10.578125 C 4.675781 -12.722656 5.332031 -14.832031 6.0625 -16.90625 C 6.125 -17.082031 6.300781 -17.238281 6.59375 -17.375 C 6.894531 -17.519531 7.1875 -17.59375 7.46875 -17.59375 C 7.632812 -17.59375 7.773438 -17.554688 7.890625 -17.484375 C 8.003906 -17.421875 8.0625 -17.328125 8.0625 -17.203125 C 8.0625 -17.160156 8.046875 -17.085938 8.015625 -16.984375 C 7.253906 -14.828125 6.613281 -12.765625 6.09375 -10.796875 C 7.019531 -10.890625 7.632812 -10.9375 7.9375 -10.9375 C 8.320312 -10.9375 8.515625 -10.828125 8.515625 -10.609375 C 8.515625 -10.421875 8.398438 -10.21875 8.171875 -10 C 7.953125 -9.78125 7.722656 -9.644531 7.484375 -9.59375 C 6.691406 -9.457031 6.097656 -9.363281 5.703125 -9.3125 C 5.472656 -8.414062 5.273438 -7.535156 5.109375 -6.671875 C 5.078125 -6.566406 4.984375 -6.179688 4.828125 -5.515625 C 4.671875 -4.847656 4.59375 -4.222656 4.59375 -3.640625 C 4.59375 -2.878906 4.789062 -2.46875 5.1875 -2.40625 C 5.4375 -2.363281 5.722656 -2.503906 6.046875 -2.828125 C 6.367188 -3.148438 6.789062 -3.640625 7.3125 -4.296875 C 7.625 -4.703125 7.859375 -4.984375 8.015625 -5.140625 Z M 8.015625 -5.140625 "/></g></g></g><g fill="#000000" fill-opacity="1"><g transform="translate(132.831179, 61.741351)"><g><path d="M 8.625 -16.421875 C 8.6875 -16.628906 8.890625 -16.816406 9.234375 -16.984375 C 9.578125 -17.148438 9.898438 -17.234375 10.203125 -17.234375 C 10.378906 -17.234375 10.507812 -17.203125 10.59375 -17.140625 C 10.675781 -17.078125 10.703125 -16.984375 10.671875 -16.859375 L 9.515625 -12.828125 C 9.441406 -12.597656 9.238281 -12.394531 8.90625 -12.21875 C 8.570312 -12.050781 8.25 -11.96875 7.9375 -11.96875 C 7.769531 -11.96875 7.640625 -12.003906 7.546875 -12.078125 C 7.460938 -12.148438 7.4375 -12.257812 7.46875 -12.40625 C 7.5625 -12.875 7.609375 -13.289062 7.609375 -13.65625 C 7.609375 -14.414062 7.4375 -14.828125 7.09375 -14.890625 C 6.945312 -14.929688 6.753906 -14.796875 6.515625 -14.484375 C 6.285156 -14.171875 6.023438 -13.789062 5.734375 -13.34375 C 4.734375 -11.882812 3.953125 -10.175781 3.390625 -8.21875 C 3.210938 -7.539062 3.066406 -6.9375 2.953125 -6.40625 C 2.847656 -5.882812 2.796875 -5.363281 2.796875 -4.84375 C 2.796875 -4.3125 2.863281 -3.84375 3 -3.4375 C 3.132812 -3.007812 3.351562 -2.632812 3.65625 -2.3125 C 3.957031 -1.988281 4.304688 -1.828125 4.703125 -1.828125 C 5.085938 -1.828125 5.457031 -1.957031 5.8125 -2.21875 C 6.175781 -2.488281 6.554688 -2.84375 6.953125 -3.28125 L 6.828125 -3.46875 C 6.785156 -3.539062 6.765625 -3.601562 6.765625 -3.65625 C 6.765625 -3.851562 6.921875 -4.039062 7.234375 -4.21875 C 7.554688 -4.394531 7.878906 -4.484375 8.203125 -4.484375 C 8.503906 -4.484375 8.722656 -4.390625 8.859375 -4.203125 L 9.109375 -3.8125 C 9.128906 -3.78125 9.140625 -3.738281 9.140625 -3.6875 C 9.140625 -3.625 9.117188 -3.554688 9.078125 -3.484375 C 9.035156 -3.410156 8.992188 -3.347656 8.953125 -3.296875 C 8.328125 -2.503906 7.566406 -1.816406 6.671875 -1.234375 C 5.785156 -0.648438 4.90625 -0.359375 4.03125 -0.359375 C 3.351562 -0.359375 2.734375 -0.554688 2.171875 -0.953125 C 1.179688 -1.648438 0.6875 -2.765625 0.6875 -4.296875 C 0.6875 -5.234375 0.894531 -6.429688 1.3125 -7.890625 C 1.757812 -9.515625 2.367188 -11.046875 3.140625 -12.484375 C 3.910156 -13.921875 4.84375 -14.992188 5.9375 -15.703125 C 6.5625 -16.117188 7.164062 -16.328125 7.75 -16.328125 C 8.007812 -16.328125 8.273438 -16.265625 8.546875 -16.140625 Z M 8.625 -16.421875 "/></g></g></g><g fill="#000000" fill-opacity="1"><g transform="translate(143.100849, 61.741351)"><g><path d="M 7.921875 -7.671875 C 7.921875 -9.066406 7.101562 -10.171875 5.46875 -10.984375 C 5.050781 -10.640625 4.640625 -10.179688 4.234375 -9.609375 C 3.722656 -8.878906 3.304688 -8.066406 2.984375 -7.171875 C 2.847656 -6.816406 2.71875 -6.328125 2.59375 -5.703125 C 2.476562 -5.085938 2.421875 -4.515625 2.421875 -3.984375 C 2.421875 -3.441406 2.492188 -3.007812 2.640625 -2.6875 C 2.796875 -2.363281 3.046875 -2.203125 3.390625 -2.203125 C 3.671875 -2.203125 4 -2.316406 4.375 -2.546875 C 5.382812 -3.140625 6.226562 -3.878906 6.90625 -4.765625 C 7.582031 -5.648438 7.921875 -6.617188 7.921875 -7.671875 Z M 8.484375 -11.265625 C 8.953125 -10.804688 9.316406 -10.289062 9.578125 -9.71875 C 9.835938 -9.15625 9.96875 -8.554688 9.96875 -7.921875 C 9.96875 -7.003906 9.703125 -6.078125 9.171875 -5.140625 C 8.816406 -4.503906 8.296875 -3.832031 7.609375 -3.125 C 6.921875 -2.425781 6.15625 -1.835938 5.3125 -1.359375 C 4.46875 -0.878906 3.664062 -0.640625 2.90625 -0.640625 C 2.425781 -0.640625 1.972656 -0.742188 1.546875 -0.953125 C 0.648438 -1.441406 0.203125 -2.320312 0.203125 -3.59375 C 0.203125 -4.507812 0.40625 -5.507812 0.8125 -6.59375 C 1.226562 -7.6875 1.664062 -8.613281 2.125 -9.375 C 3.25 -11.15625 4.4375 -12.28125 5.6875 -12.75 C 6.03125 -12.882812 6.398438 -12.953125 6.796875 -12.953125 C 7.253906 -12.953125 7.640625 -12.832031 7.953125 -12.59375 C 8.273438 -12.363281 8.460938 -12.003906 8.515625 -11.515625 L 8.515625 -11.4375 C 8.515625 -11.394531 8.503906 -11.335938 8.484375 -11.265625 Z M 8.484375 -11.265625 "/></g></g></g><g fill="#000000" fill-opacity="1"><g transform="translate(152.734871, 61.741351)"><g><path d="M 12.40625 -12.953125 C 12.34375 -11.554688 12.3125 -10.3125 12.3125 -9.21875 C 12.3125 -6.488281 12.5 -4.054688 12.875 -1.921875 C 12.925781 -1.617188 12.804688 -1.359375 12.515625 -1.140625 C 12.222656 -0.921875 11.90625 -0.8125 11.5625 -0.8125 C 11.363281 -0.8125 11.195312 -0.859375 11.0625 -0.953125 C 10.925781 -1.046875 10.847656 -1.1875 10.828125 -1.375 C 10.484375 -3.9375 10.285156 -6.332031 10.234375 -8.5625 C 9.597656 -7.050781 8.832031 -4.929688 7.9375 -2.203125 C 7.925781 -2.148438 7.890625 -2.078125 7.828125 -1.984375 C 7.703125 -1.828125 7.519531 -1.703125 7.28125 -1.609375 C 7.050781 -1.515625 6.816406 -1.46875 6.578125 -1.46875 C 6.390625 -1.46875 6.242188 -1.492188 6.140625 -1.546875 C 5.960938 -1.640625 5.875 -1.765625 5.875 -1.921875 C 5.875 -1.960938 5.890625 -2.035156 5.921875 -2.140625 C 5.929688 -2.285156 5.9375 -2.5 5.9375 -2.78125 C 5.9375 -3.238281 5.894531 -3.90625 5.8125 -4.78125 L 5.734375 -5.859375 C 5.679688 -7.160156 5.632812 -8.132812 5.59375 -8.78125 C 4.957031 -7.613281 4.457031 -6.753906 4.09375 -6.203125 C 3.769531 -4.515625 3.238281 -2.882812 2.5 -1.3125 C 2.40625 -1.125 2.207031 -0.960938 1.90625 -0.828125 C 1.601562 -0.703125 1.304688 -0.640625 1.015625 -0.640625 C 0.828125 -0.640625 0.675781 -0.671875 0.5625 -0.734375 C 0.445312 -0.796875 0.390625 -0.890625 0.390625 -1.015625 C 0.390625 -1.085938 0.410156 -1.171875 0.453125 -1.265625 C 1.066406 -2.585938 1.53125 -3.945312 1.84375 -5.34375 C 1.789062 -5.394531 1.765625 -5.46875 1.765625 -5.5625 C 1.765625 -5.695312 1.816406 -5.835938 1.921875 -5.984375 L 2 -6.109375 C 2.21875 -7.171875 2.328125 -8.300781 2.328125 -9.5 C 2.328125 -10 2.304688 -10.492188 2.265625 -10.984375 C 2.253906 -11.203125 2.40625 -11.40625 2.71875 -11.59375 C 3.039062 -11.78125 3.363281 -11.875 3.6875 -11.875 C 3.875 -11.875 4.023438 -11.832031 4.140625 -11.75 C 4.265625 -11.675781 4.332031 -11.566406 4.34375 -11.421875 C 4.375 -11.179688 4.398438 -10.796875 4.421875 -10.265625 C 4.734375 -10.816406 5.0625 -11.34375 5.40625 -11.84375 C 5.425781 -12.0625 5.582031 -12.253906 5.875 -12.421875 C 6.164062 -12.585938 6.472656 -12.671875 6.796875 -12.671875 C 6.992188 -12.671875 7.160156 -12.625 7.296875 -12.53125 C 7.429688 -12.445312 7.507812 -12.316406 7.53125 -12.140625 C 7.65625 -10.429688 7.75 -8.90625 7.8125 -7.5625 C 8.695312 -9.738281 9.578125 -11.535156 10.453125 -12.953125 C 10.535156 -13.097656 10.707031 -13.226562 10.96875 -13.34375 C 11.238281 -13.46875 11.5 -13.53125 11.75 -13.53125 C 11.945312 -13.53125 12.109375 -13.484375 12.234375 -13.390625 C 12.367188 -13.296875 12.425781 -13.148438 12.40625 -12.953125 Z M 12.40625 -12.953125 "/></g></g></g><g fill="#000000" fill-opacity="1"><g transform="translate(165.785492, 61.741351)"><g><path d="M 6.59375 -5.796875 C 6.644531 -6.023438 6.671875 -6.289062 6.671875 -6.59375 C 6.671875 -7.65625 6.273438 -8.6875 5.484375 -9.6875 C 5.035156 -10.269531 4.554688 -10.738281 4.046875 -11.09375 C 3.648438 -8.625 3.34375 -6.628906 3.125 -5.109375 C 3.007812 -4.484375 2.863281 -3.546875 2.6875 -2.296875 C 3.082031 -2.117188 3.441406 -2.03125 3.765625 -2.03125 C 4.328125 -2.03125 4.832031 -2.300781 5.28125 -2.84375 C 5.613281 -3.238281 5.890625 -3.691406 6.109375 -4.203125 C 6.335938 -4.722656 6.5 -5.253906 6.59375 -5.796875 Z M 4.265625 -13.03125 C 5.085938 -12.75 5.828125 -12.28125 6.484375 -11.625 C 7.148438 -10.96875 7.671875 -10.207031 8.046875 -9.34375 C 8.429688 -8.476562 8.625 -7.613281 8.625 -6.75 C 8.625 -6.289062 8.5625 -5.84375 8.4375 -5.40625 C 8.1875 -4.488281 7.804688 -3.664062 7.296875 -2.9375 C 6.785156 -2.21875 6.175781 -1.648438 5.46875 -1.234375 C 4.757812 -0.816406 4.003906 -0.609375 3.203125 -0.609375 C 2.941406 -0.609375 2.679688 -0.628906 2.421875 -0.671875 C 1.890625 2.710938 1.414062 5.476562 1 7.625 C 0.9375 7.875 0.742188 8.082031 0.421875 8.25 C 0.109375 8.425781 -0.207031 8.515625 -0.53125 8.515625 C -0.757812 8.515625 -0.9375 8.46875 -1.0625 8.375 C -1.1875 8.28125 -1.226562 8.144531 -1.1875 7.96875 C -0.539062 4.675781 0.0234375 1.539062 0.515625 -1.4375 L 0.484375 -1.453125 C 0.304688 -1.566406 0.21875 -1.695312 0.21875 -1.84375 C 0.21875 -2.070312 0.375 -2.285156 0.6875 -2.484375 C 1.113281 -4.929688 1.59375 -8.078125 2.125 -11.921875 L 1.859375 -11.890625 L 1.640625 -11.875 C 1.421875 -11.875 1.257812 -11.910156 1.15625 -11.984375 C 1.050781 -12.066406 1 -12.171875 1 -12.296875 C 1 -12.492188 1.097656 -12.679688 1.296875 -12.859375 C 1.492188 -13.046875 1.738281 -13.164062 2.03125 -13.21875 C 2.269531 -13.257812 2.503906 -13.28125 2.734375 -13.28125 C 2.910156 -13.28125 3.144531 -13.269531 3.4375 -13.25 C 3.863281 -13.300781 4.140625 -13.226562 4.265625 -13.03125 Z M 4.265625 -13.03125 "/></g></g></g><g fill="#000000" fill-opacity="1"><g transform="translate(174.227669, 61.741351)"><g><path d="M 9.078125 -11.84375 C 9.171875 -12 9.398438 -12.164062 9.765625 -12.34375 C 10.128906 -12.519531 10.445312 -12.609375 10.71875 -12.609375 C 11.113281 -12.609375 11.285156 -12.421875 11.234375 -12.046875 C 11.234375 -12.015625 11.226562 -11.957031 11.21875 -11.875 C 11.207031 -11.789062 11.195312 -11.734375 11.1875 -11.703125 L 11.1875 -11.65625 C 11.050781 -10.769531 10.898438 -9.707031 10.734375 -8.46875 C 10.566406 -7.226562 10.4375 -6.257812 10.34375 -5.5625 L 9.828125 -1.75 C 9.785156 -1.476562 9.597656 -1.25 9.265625 -1.0625 C 8.929688 -0.882812 8.585938 -0.796875 8.234375 -0.796875 C 8.023438 -0.796875 7.859375 -0.84375 7.734375 -0.9375 C 7.609375 -1.03125 7.5625 -1.160156 7.59375 -1.328125 C 7.738281 -2.460938 7.96875 -4.171875 8.28125 -6.453125 L 8.078125 -6.109375 C 7.734375 -5.535156 7.476562 -5.113281 7.3125 -4.84375 C 6.71875 -3.914062 6.082031 -3.132812 5.40625 -2.5 C 4.738281 -1.863281 3.976562 -1.441406 3.125 -1.234375 C 2.789062 -1.148438 2.488281 -1.109375 2.21875 -1.109375 C 0.976562 -1.109375 0.359375 -1.957031 0.359375 -3.65625 C 0.359375 -4.445312 0.484375 -5.347656 0.734375 -6.359375 C 0.984375 -7.378906 1.269531 -8.332031 1.59375 -9.21875 C 1.914062 -10.101562 2.195312 -10.773438 2.4375 -11.234375 C 2.53125 -11.421875 2.738281 -11.582031 3.0625 -11.71875 C 3.394531 -11.863281 3.710938 -11.9375 4.015625 -11.9375 C 4.203125 -11.9375 4.347656 -11.898438 4.453125 -11.828125 C 4.566406 -11.765625 4.625 -11.675781 4.625 -11.5625 C 4.625 -11.507812 4.601562 -11.425781 4.5625 -11.3125 C 3.675781 -9.375 3.101562 -7.609375 2.84375 -6.015625 L 2.734375 -5.484375 C 2.628906 -4.921875 2.578125 -4.492188 2.578125 -4.203125 C 2.578125 -4.054688 2.585938 -3.953125 2.609375 -3.890625 C 2.765625 -3.210938 3.019531 -2.894531 3.375 -2.9375 C 3.519531 -2.945312 3.691406 -3.070312 3.890625 -3.3125 C 4.097656 -3.550781 4.234375 -3.695312 4.296875 -3.75 C 4.941406 -4.507812 5.523438 -5.332031 6.046875 -6.21875 C 6.578125 -7.113281 7.195312 -8.238281 7.90625 -9.59375 C 8.257812 -10.320312 8.648438 -11.070312 9.078125 -11.84375 Z M 9.078125 -11.84375 "/></g></g></g><g fill="#000000" fill-opacity="1"><g transform="translate(184.954203, 61.741351)"><g><path d="M 8.015625 -5.140625 C 8.109375 -5.234375 8.253906 -5.304688 8.453125 -5.359375 C 8.660156 -5.410156 8.863281 -5.4375 9.0625 -5.4375 C 9.550781 -5.4375 9.796875 -5.3125 9.796875 -5.0625 C 9.796875 -4.945312 9.726562 -4.816406 9.59375 -4.671875 C 9.4375 -4.484375 9.289062 -4.304688 9.15625 -4.140625 C 9.019531 -3.972656 8.898438 -3.820312 8.796875 -3.6875 C 8.210938 -2.9375 7.6875 -2.335938 7.21875 -1.890625 C 6.757812 -1.453125 6.21875 -1.132812 5.59375 -0.9375 C 5.300781 -0.84375 4.992188 -0.796875 4.671875 -0.796875 C 4.109375 -0.796875 3.628906 -0.953125 3.234375 -1.265625 C 2.847656 -1.585938 2.625 -2.050781 2.5625 -2.65625 C 2.53125 -2.832031 2.515625 -3.097656 2.515625 -3.453125 C 2.515625 -4.140625 2.59375 -4.84375 2.75 -5.5625 C 2.914062 -6.28125 3.148438 -7.171875 3.453125 -8.234375 L 3.6875 -9.09375 L 2.9375 -9.015625 C 2.570312 -8.984375 2.070312 -8.929688 1.4375 -8.859375 C 1.125 -8.816406 0.890625 -8.847656 0.734375 -8.953125 C 0.578125 -9.054688 0.5 -9.195312 0.5 -9.375 C 0.5 -9.570312 0.59375 -9.765625 0.78125 -9.953125 C 0.976562 -10.148438 1.226562 -10.257812 1.53125 -10.28125 L 4.09375 -10.578125 C 4.675781 -12.722656 5.332031 -14.832031 6.0625 -16.90625 C 6.125 -17.082031 6.300781 -17.238281 6.59375 -17.375 C 6.894531 -17.519531 7.1875 -17.59375 7.46875 -17.59375 C 7.632812 -17.59375 7.773438 -17.554688 7.890625 -17.484375 C 8.003906 -17.421875 8.0625 -17.328125 8.0625 -17.203125 C 8.0625 -17.160156 8.046875 -17.085938 8.015625 -16.984375 C 7.253906 -14.828125 6.613281 -12.765625 6.09375 -10.796875 C 7.019531 -10.890625 7.632812 -10.9375 7.9375 -10.9375 C 8.320312 -10.9375 8.515625 -10.828125 8.515625 -10.609375 C 8.515625 -10.421875 8.398438 -10.21875 8.171875 -10 C 7.953125 -9.78125 7.722656 -9.644531 7.484375 -9.59375 C 6.691406 -9.457031 6.097656 -9.363281 5.703125 -9.3125 C 5.472656 -8.414062 5.273438 -7.535156 5.109375 -6.671875 C 5.078125 -6.566406 4.984375 -6.179688 4.828125 -5.515625 C 4.671875 -4.847656 4.59375 -4.222656 4.59375 -3.640625 C 4.59375 -2.878906 4.789062 -2.46875 5.1875 -2.40625 C 5.4375 -2.363281 5.722656 -2.503906 6.046875 -2.828125 C 6.367188 -3.148438 6.789062 -3.640625 7.3125 -4.296875 C 7.625 -4.703125 7.859375 -4.984375 8.015625 -5.140625 Z M 8.015625 -5.140625 "/></g></g></g><g fill="#000000" fill-opacity="1"><g transform="translate(194.766996, 61.741351)"><g><path d="M 5.734375 -11.421875 C 5.054688 -10.898438 4.507812 -10.066406 4.09375 -8.921875 C 5.382812 -9.410156 6.554688 -9.816406 7.609375 -10.140625 C 7.171875 -10.753906 6.726562 -11.164062 6.28125 -11.375 C 6.1875 -11.414062 6.09375 -11.441406 6 -11.453125 C 5.914062 -11.472656 5.867188 -11.484375 5.859375 -11.484375 C 5.867188 -11.460938 5.859375 -11.445312 5.828125 -11.4375 C 5.796875 -11.425781 5.765625 -11.421875 5.734375 -11.421875 Z M 5.8125 -12.828125 C 6.03125 -12.878906 6.257812 -12.90625 6.5 -12.90625 C 7.769531 -12.90625 8.921875 -12.050781 9.953125 -10.34375 C 9.992188 -10.289062 10.015625 -10.222656 10.015625 -10.140625 C 10.015625 -9.992188 9.921875 -9.84375 9.734375 -9.6875 C 9.585938 -9.53125 9.398438 -9.40625 9.171875 -9.3125 C 7.847656 -8.726562 6.007812 -8.035156 3.65625 -7.234375 C 3.519531 -6.554688 3.453125 -5.859375 3.453125 -5.140625 C 3.453125 -4.804688 3.457031 -4.566406 3.46875 -4.421875 C 3.5 -3.828125 3.617188 -3.3125 3.828125 -2.875 C 3.898438 -2.726562 4 -2.585938 4.125 -2.453125 C 4.25 -2.328125 4.34375 -2.242188 4.40625 -2.203125 C 4.445312 -2.179688 4.515625 -2.171875 4.609375 -2.171875 C 4.703125 -2.171875 4.8125 -2.195312 4.9375 -2.25 C 5.0625 -2.300781 5.203125 -2.375 5.359375 -2.46875 C 5.742188 -2.6875 6.101562 -2.941406 6.4375 -3.234375 C 6.769531 -3.523438 7.164062 -3.90625 7.625 -4.375 C 7.8125 -4.550781 8.125 -4.640625 8.5625 -4.640625 C 8.800781 -4.640625 9 -4.601562 9.15625 -4.53125 C 9.320312 -4.457031 9.40625 -4.359375 9.40625 -4.234375 C 9.40625 -4.109375 9.34375 -3.972656 9.21875 -3.828125 C 8.394531 -2.941406 7.550781 -2.1875 6.6875 -1.5625 C 5.832031 -0.945312 4.972656 -0.640625 4.109375 -0.640625 C 3.703125 -0.640625 3.316406 -0.722656 2.953125 -0.890625 C 2.359375 -1.171875 1.925781 -1.613281 1.65625 -2.21875 C 1.394531 -2.832031 1.265625 -3.550781 1.265625 -4.375 C 1.265625 -4.976562 1.347656 -5.691406 1.515625 -6.515625 L 1.34375 -6.46875 L 1.1875 -6.421875 C 0.988281 -6.347656 0.832031 -6.3125 0.71875 -6.3125 C 0.53125 -6.3125 0.382812 -6.359375 0.28125 -6.453125 C 0.175781 -6.546875 0.125 -6.664062 0.125 -6.8125 C 0.125 -6.976562 0.191406 -7.144531 0.328125 -7.3125 C 0.460938 -7.476562 0.671875 -7.613281 0.953125 -7.71875 L 1.921875 -8.109375 C 2.046875 -8.472656 2.226562 -8.953125 2.46875 -9.546875 C 2.832031 -10.367188 3.289062 -11.078125 3.84375 -11.671875 C 4.40625 -12.273438 5.0625 -12.660156 5.8125 -12.828125 Z M 5.8125 -12.828125 "/></g></g></g><g fill="#000000" fill-opacity="1"><g transform="translate(204.500331, 61.741351)"><g><path d="M 6 -13.109375 C 6.382812 -13.265625 6.734375 -13.34375 7.046875 -13.34375 C 7.390625 -13.34375 7.664062 -13.253906 7.875 -13.078125 C 8.09375 -12.898438 8.203125 -12.613281 8.203125 -12.21875 C 8.203125 -11.832031 8.140625 -11.410156 8.015625 -10.953125 C 7.898438 -10.503906 7.738281 -9.976562 7.53125 -9.375 L 7.25 -8.546875 C 7.164062 -8.285156 6.957031 -8.066406 6.625 -7.890625 C 6.300781 -7.722656 5.988281 -7.640625 5.6875 -7.640625 C 5.476562 -7.640625 5.320312 -7.679688 5.21875 -7.765625 C 5.125 -7.859375 5.101562 -7.988281 5.15625 -8.15625 C 5.394531 -8.90625 5.632812 -9.726562 5.875 -10.625 C 5.925781 -11.03125 5.96875 -11.300781 6 -11.4375 L 5.921875 -11.359375 C 4.898438 -10.484375 3.96875 -9.382812 3.125 -8.0625 C 2.738281 -5.957031 2.5 -3.847656 2.40625 -1.734375 C 2.394531 -1.472656 2.222656 -1.25 1.890625 -1.0625 C 1.566406 -0.875 1.234375 -0.78125 0.890625 -0.78125 C 0.691406 -0.78125 0.523438 -0.820312 0.390625 -0.90625 C 0.265625 -1 0.207031 -1.140625 0.21875 -1.328125 C 0.320312 -3.234375 0.523438 -5.085938 0.828125 -6.890625 C 0.703125 -6.984375 0.640625 -7.085938 0.640625 -7.203125 C 0.640625 -7.285156 0.664062 -7.375 0.71875 -7.46875 L 1.015625 -7.96875 C 1.304688 -9.488281 1.660156 -11.015625 2.078125 -12.546875 C 2.148438 -12.785156 2.359375 -12.992188 2.703125 -13.171875 C 3.054688 -13.347656 3.394531 -13.4375 3.71875 -13.4375 C 3.914062 -13.4375 4.066406 -13.394531 4.171875 -13.3125 C 4.273438 -13.238281 4.300781 -13.125 4.25 -12.96875 C 4.039062 -12.226562 3.910156 -11.738281 3.859375 -11.5 C 4.648438 -12.289062 5.363281 -12.828125 6 -13.109375 Z M 6 -13.109375 "/></g></g></g><g fill="#000000" fill-opacity="1"><g transform="translate(211.849996, 61.741351)"><g/></g></g><g fill="#000000" fill-opacity="1"><g transform="translate(217.332451, 61.741351)"><g><path d="M 10.390625 -7.53125 C 11.222656 -6.800781 11.640625 -6.050781 11.640625 -5.28125 C 11.640625 -4.78125 11.46875 -4.273438 11.125 -3.765625 C 9.90625 -2.023438 8.472656 -0.945312 6.828125 -0.53125 C 6.410156 -0.425781 5.9375 -0.375 5.40625 -0.375 C 4.15625 -0.375 2.960938 -0.6875 1.828125 -1.3125 C 1.285156 -1.601562 0.90625 -1.976562 0.6875 -2.4375 C 0.476562 -2.90625 0.375 -3.457031 0.375 -4.09375 C 0.375 -4.539062 0.425781 -5.1875 0.53125 -6.03125 C 0.570312 -6.257812 0.757812 -6.375 1.09375 -6.375 C 1.457031 -6.375 1.832031 -6.253906 2.21875 -6.015625 C 2.601562 -5.773438 2.773438 -5.507812 2.734375 -5.21875 C 2.722656 -5.113281 2.691406 -4.878906 2.640625 -4.515625 C 2.585938 -4.148438 2.5625 -3.816406 2.5625 -3.515625 C 2.5625 -2.828125 2.726562 -2.363281 3.0625 -2.125 C 3.394531 -1.882812 3.820312 -1.765625 4.34375 -1.765625 C 4.875 -1.765625 5.425781 -1.878906 6 -2.109375 C 6.4375 -2.273438 6.921875 -2.554688 7.453125 -2.953125 C 7.992188 -3.359375 8.453125 -3.8125 8.828125 -4.3125 C 9.203125 -4.8125 9.390625 -5.300781 9.390625 -5.78125 C 9.390625 -6.164062 9.257812 -6.515625 9 -6.828125 C 8.726562 -7.128906 8.351562 -7.421875 7.875 -7.703125 C 7.394531 -7.984375 6.753906 -8.304688 5.953125 -8.671875 C 4.972656 -9.140625 4.1875 -9.546875 3.59375 -9.890625 C 3.007812 -10.242188 2.503906 -10.660156 2.078125 -11.140625 C 1.660156 -11.628906 1.453125 -12.179688 1.453125 -12.796875 C 1.453125 -13.066406 1.484375 -13.3125 1.546875 -13.53125 C 1.867188 -14.71875 2.65625 -15.570312 3.90625 -16.09375 C 5.15625 -16.613281 6.507812 -16.875 7.96875 -16.875 C 8.601562 -16.875 9.15625 -16.832031 9.625 -16.75 C 10.101562 -16.675781 10.503906 -16.507812 10.828125 -16.25 C 11.179688 -15.957031 11.359375 -15.546875 11.359375 -15.015625 C 11.359375 -14.691406 11.304688 -14.375 11.203125 -14.0625 C 11.109375 -13.757812 10.960938 -13.34375 10.765625 -12.8125 C 10.617188 -12.445312 10.53125 -12.226562 10.5 -12.15625 C 10.425781 -11.925781 10.207031 -11.8125 9.84375 -11.8125 C 9.488281 -11.8125 9.140625 -11.910156 8.796875 -12.109375 C 8.453125 -12.304688 8.28125 -12.535156 8.28125 -12.796875 C 8.28125 -12.859375 8.285156 -12.910156 8.296875 -12.953125 L 8.59375 -13.796875 C 8.726562 -14.171875 8.820312 -14.453125 8.875 -14.640625 L 9.015625 -15.46875 C 7.347656 -15.5 6.019531 -15.160156 5.03125 -14.453125 C 4.625 -14.191406 4.3125 -13.882812 4.09375 -13.53125 C 3.875 -13.1875 3.765625 -12.832031 3.765625 -12.46875 C 3.765625 -11.84375 4.078125 -11.304688 4.703125 -10.859375 C 5.148438 -10.546875 5.648438 -10.25 6.203125 -9.96875 C 6.753906 -9.6875 7.085938 -9.515625 7.203125 -9.453125 C 7.972656 -9.066406 8.59375 -8.738281 9.0625 -8.46875 C 9.53125 -8.207031 9.972656 -7.894531 10.390625 -7.53125 Z M 10.390625 -7.53125 "/></g></g></g><g fill="#000000" fill-opacity="1"><g transform="translate(229.230967, 61.741351)"><g><path d="M 8.703125 -12.953125 C 8.910156 -12.878906 9.007812 -12.738281 9 -12.53125 C 8.625 -8.976562 8.082031 -5.28125 7.375 -1.4375 C 7.3125 -1.175781 7.117188 -0.957031 6.796875 -0.78125 C 6.484375 -0.613281 6.171875 -0.53125 5.859375 -0.53125 C 5.660156 -0.53125 5.5 -0.570312 5.375 -0.65625 C 5.257812 -0.75 5.222656 -0.875 5.265625 -1.03125 C 5.578125 -2.40625 5.835938 -3.8125 6.046875 -5.25 C 6.265625 -6.695312 6.472656 -8.359375 6.671875 -10.234375 C 5.585938 -9.222656 4.503906 -8.125 3.421875 -6.9375 L 2.328125 -0.890625 C 2.273438 -0.640625 2.082031 -0.421875 1.75 -0.234375 C 1.414062 -0.046875 1.082031 0.046875 0.75 0.046875 C 0.550781 0.046875 0.398438 0.00390625 0.296875 -0.078125 C 0.191406 -0.171875 0.148438 -0.304688 0.171875 -0.484375 L 1.15625 -5.9375 C 0.988281 -5.976562 0.90625 -6.070312 0.90625 -6.21875 C 0.90625 -6.320312 0.96875 -6.453125 1.09375 -6.609375 L 1.328125 -6.9375 L 3.125 -16.640625 C 3.15625 -16.878906 3.335938 -17.082031 3.671875 -17.25 C 4.003906 -17.425781 4.328125 -17.515625 4.640625 -17.515625 C 4.828125 -17.515625 4.972656 -17.472656 5.078125 -17.390625 C 5.191406 -17.316406 5.234375 -17.207031 5.203125 -17.0625 L 3.9375 -9.875 C 4.914062 -10.851562 6.003906 -11.785156 7.203125 -12.671875 C 7.585938 -12.929688 7.945312 -13.0625 8.28125 -13.0625 C 8.4375 -13.0625 8.578125 -13.023438 8.703125 -12.953125 Z M 8.703125 -12.953125 "/></g></g></g><g fill="#000000" fill-opacity="1"><g transform="translate(239.063625, 61.741351)"><g><path d="M 7.921875 -7.671875 C 7.921875 -9.066406 7.101562 -10.171875 5.46875 -10.984375 C 5.050781 -10.640625 4.640625 -10.179688 4.234375 -9.609375 C 3.722656 -8.878906 3.304688 -8.066406 2.984375 -7.171875 C 2.847656 -6.816406 2.71875 -6.328125 2.59375 -5.703125 C 2.476562 -5.085938 2.421875 -4.515625 2.421875 -3.984375 C 2.421875 -3.441406 2.492188 -3.007812 2.640625 -2.6875 C 2.796875 -2.363281 3.046875 -2.203125 3.390625 -2.203125 C 3.671875 -2.203125 4 -2.316406 4.375 -2.546875 C 5.382812 -3.140625 6.226562 -3.878906 6.90625 -4.765625 C 7.582031 -5.648438 7.921875 -6.617188 7.921875 -7.671875 Z M 8.484375 -11.265625 C 8.953125 -10.804688 9.316406 -10.289062 9.578125 -9.71875 C 9.835938 -9.15625 9.96875 -8.554688 9.96875 -7.921875 C 9.96875 -7.003906 9.703125 -6.078125 9.171875 -5.140625 C 8.816406 -4.503906 8.296875 -3.832031 7.609375 -3.125 C 6.921875 -2.425781 6.15625 -1.835938 5.3125 -1.359375 C 4.46875 -0.878906 3.664062 -0.640625 2.90625 -0.640625 C 2.425781 -0.640625 1.972656 -0.742188 1.546875 -0.953125 C 0.648438 -1.441406 0.203125 -2.320312 0.203125 -3.59375 C 0.203125 -4.507812 0.40625 -5.507812 0.8125 -6.59375 C 1.226562 -7.6875 1.664062 -8.613281 2.125 -9.375 C 3.25 -11.15625 4.4375 -12.28125 5.6875 -12.75 C 6.03125 -12.882812 6.398438 -12.953125 6.796875 -12.953125 C 7.253906 -12.953125 7.640625 -12.832031 7.953125 -12.59375 C 8.273438 -12.363281 8.460938 -12.003906 8.515625 -11.515625 L 8.515625 -11.4375 C 8.515625 -11.394531 8.503906 -11.335938 8.484375 -11.265625 Z M 8.484375 -11.265625 "/></g></g></g><g fill="#000000" fill-opacity="1"><g transform="translate(248.697647, 61.741351)"><g><path d="M 6.59375 -5.796875 C 6.644531 -6.023438 6.671875 -6.289062 6.671875 -6.59375 C 6.671875 -7.65625 6.273438 -8.6875 5.484375 -9.6875 C 5.035156 -10.269531 4.554688 -10.738281 4.046875 -11.09375 C 3.648438 -8.625 3.34375 -6.628906 3.125 -5.109375 C 3.007812 -4.484375 2.863281 -3.546875 2.6875 -2.296875 C 3.082031 -2.117188 3.441406 -2.03125 3.765625 -2.03125 C 4.328125 -2.03125 4.832031 -2.300781 5.28125 -2.84375 C 5.613281 -3.238281 5.890625 -3.691406 6.109375 -4.203125 C 6.335938 -4.722656 6.5 -5.253906 6.59375 -5.796875 Z M 4.265625 -13.03125 C 5.085938 -12.75 5.828125 -12.28125 6.484375 -11.625 C 7.148438 -10.96875 7.671875 -10.207031 8.046875 -9.34375 C 8.429688 -8.476562 8.625 -7.613281 8.625 -6.75 C 8.625 -6.289062 8.5625 -5.84375 8.4375 -5.40625 C 8.1875 -4.488281 7.804688 -3.664062 7.296875 -2.9375 C 6.785156 -2.21875 6.175781 -1.648438 5.46875 -1.234375 C 4.757812 -0.816406 4.003906 -0.609375 3.203125 -0.609375 C 2.941406 -0.609375 2.679688 -0.628906 2.421875 -0.671875 C 1.890625 2.710938 1.414062 5.476562 1 7.625 C 0.9375 7.875 0.742188 8.082031 0.421875 8.25 C 0.109375 8.425781 -0.207031 8.515625 -0.53125 8.515625 C -0.757812 8.515625 -0.9375 8.46875 -1.0625 8.375 C -1.1875 8.28125 -1.226562 8.144531 -1.1875 7.96875 C -0.539062 4.675781 0.0234375 1.539062 0.515625 -1.4375 L 0.484375 -1.453125 C 0.304688 -1.566406 0.21875 -1.695312 0.21875 -1.84375 C 0.21875 -2.070312 0.375 -2.285156 0.6875 -2.484375 C 1.113281 -4.929688 1.59375 -8.078125 2.125 -11.921875 L 1.859375 -11.890625 L 1.640625 -11.875 C 1.421875 -11.875 1.257812 -11.910156 1.15625 -11.984375 C 1.050781 -12.066406 1 -12.171875 1 -12.296875 C 1 -12.492188 1.097656 -12.679688 1.296875 -12.859375 C 1.492188 -13.046875 1.738281 -13.164062 2.03125 -13.21875 C 2.269531 -13.257812 2.503906 -13.28125 2.734375 -13.28125 C 2.910156 -13.28125 3.144531 -13.269531 3.4375 -13.25 C 3.863281 -13.300781 4.140625 -13.226562 4.265625 -13.03125 Z M 4.265625 -13.03125 "/></g></g></g><g fill="#000000" fill-opacity="1"><g transform="translate(141.715238, 85.339147)"><g><path d="M 10.578125 -16.828125 C 10.640625 -16.835938 10.734375 -16.84375 10.859375 -16.84375 C 11.046875 -16.84375 11.203125 -16.800781 11.328125 -16.71875 C 11.460938 -16.644531 11.53125 -16.519531 11.53125 -16.34375 C 11.53125 -16.144531 11.414062 -15.972656 11.1875 -15.828125 C 10.957031 -15.679688 10.710938 -15.578125 10.453125 -15.515625 C 9.492188 -15.242188 8.582031 -15.054688 7.71875 -14.953125 C 7.519531 -12.984375 7.210938 -10.960938 6.796875 -8.890625 C 6.378906 -6.816406 5.863281 -4.617188 5.25 -2.296875 C 6.488281 -2.328125 7.410156 -2.375 8.015625 -2.4375 C 8.453125 -2.476562 8.671875 -2.367188 8.671875 -2.109375 C 8.671875 -1.910156 8.554688 -1.703125 8.328125 -1.484375 C 8.109375 -1.265625 7.875 -1.140625 7.625 -1.109375 C 5.78125 -0.867188 4.046875 -0.75 2.421875 -0.75 C 1.535156 -0.75 0.671875 -0.789062 -0.171875 -0.875 C -0.460938 -0.914062 -0.609375 -0.992188 -0.609375 -1.109375 C -0.609375 -1.265625 -0.421875 -1.460938 -0.046875 -1.703125 C 0.328125 -1.941406 0.609375 -2.066406 0.796875 -2.078125 C 1.566406 -2.171875 2.359375 -2.234375 3.171875 -2.265625 C 3.804688 -4.710938 4.328125 -6.929688 4.734375 -8.921875 C 5.148438 -10.921875 5.453125 -12.878906 5.640625 -14.796875 C 4.578125 -14.765625 3.644531 -14.820312 2.84375 -14.96875 C 2.5625 -15.019531 2.421875 -15.113281 2.421875 -15.25 C 2.421875 -15.425781 2.601562 -15.625 2.96875 -15.84375 C 3.332031 -16.0625 3.613281 -16.175781 3.8125 -16.1875 C 4.550781 -16.25 5.273438 -16.285156 5.984375 -16.296875 L 7.0625 -16.359375 L 7.203125 -16.359375 C 8.554688 -16.429688 9.679688 -16.585938 10.578125 -16.828125 Z M 10.578125 -16.828125 "/></g></g></g><g fill="#000000" fill-opacity="1"><g transform="translate(152.382178, 85.339147)"><g><path d="M 8.515625 -12.84375 C 9.046875 -12.550781 9.3125 -11.9375 9.3125 -11 C 9.3125 -10.65625 9.273438 -10.273438 9.203125 -9.859375 C 9.140625 -9.441406 9.070312 -9.046875 9 -8.671875 L 8.859375 -7.890625 L 8.015625 -1.703125 C 8.285156 -1.640625 8.398438 -1.476562 8.359375 -1.21875 C 8.210938 -0.488281 7.695312 -0.0234375 6.8125 0.171875 L 6.609375 0.203125 C 6.390625 0.203125 6.191406 0.15625 6.015625 0.0625 C 5.847656 -0.03125 5.773438 -0.175781 5.796875 -0.375 C 6.359375 -4.40625 6.769531 -7.425781 7.03125 -9.4375 C 7.039062 -9.488281 7.066406 -9.640625 7.109375 -9.890625 C 7.160156 -10.140625 7.1875 -10.378906 7.1875 -10.609375 C 7.1875 -11.023438 7.070312 -11.242188 6.84375 -11.265625 C 6.675781 -11.285156 6.394531 -11.046875 6 -10.546875 C 5.613281 -10.054688 5.398438 -9.785156 5.359375 -9.734375 C 4.566406 -8.828125 3.828125 -7.820312 3.140625 -6.71875 C 2.816406 -4.78125 2.566406 -3.21875 2.390625 -2.03125 L 2.28125 -1.390625 C 2.238281 -1.140625 2.050781 -0.921875 1.71875 -0.734375 C 1.394531 -0.546875 1.070312 -0.453125 0.75 -0.453125 C 0.550781 -0.453125 0.394531 -0.492188 0.28125 -0.578125 C 0.175781 -0.671875 0.132812 -0.800781 0.15625 -0.96875 C 0.5 -3 0.769531 -4.65625 0.96875 -5.9375 C 0.894531 -6.019531 0.859375 -6.113281 0.859375 -6.21875 C 0.859375 -6.28125 0.875 -6.351562 0.90625 -6.4375 C 0.945312 -6.5 0.984375 -6.554688 1.015625 -6.609375 C 1.054688 -6.660156 1.085938 -6.707031 1.109375 -6.75 L 1.90625 -11.5625 C 1.945312 -11.800781 2.125 -12.003906 2.4375 -12.171875 C 2.757812 -12.347656 3.078125 -12.4375 3.390625 -12.4375 C 3.585938 -12.4375 3.738281 -12.394531 3.84375 -12.3125 C 3.957031 -12.226562 4 -12.109375 3.96875 -11.953125 C 3.90625 -11.515625 3.8125 -10.953125 3.6875 -10.265625 L 4.53125 -11.15625 C 5.082031 -11.71875 5.609375 -12.175781 6.109375 -12.53125 C 6.617188 -12.882812 7.128906 -13.0625 7.640625 -13.0625 C 7.972656 -13.0625 8.265625 -12.988281 8.515625 -12.84375 Z M 8.515625 -12.84375 "/></g></g></g><g fill="#000000" fill-opacity="1"><g transform="translate(161.777825, 85.339147)"><g/></g></g><g fill="#000000" fill-opacity="1"><g transform="translate(167.26028, 85.339147)"><g><path d="M 11.65625 -16.21875 C 11.945312 -16.207031 12.09375 -16.117188 12.09375 -15.953125 C 12.09375 -15.753906 11.9375 -15.53125 11.625 -15.28125 C 11.3125 -15.039062 11.035156 -14.921875 10.796875 -14.921875 C 9.660156 -14.921875 8.398438 -14.882812 7.015625 -14.8125 C 5.890625 -10.300781 5.109375 -6.117188 4.671875 -2.265625 C 4.847656 -2.253906 5 -2.210938 5.125 -2.140625 C 5.257812 -2.066406 5.328125 -1.96875 5.328125 -1.84375 C 5.328125 -1.6875 5.207031 -1.515625 4.96875 -1.328125 L 4.1875 -0.734375 C 4.09375 -0.640625 3.914062 -0.550781 3.65625 -0.46875 C 3.40625 -0.394531 3.164062 -0.359375 2.9375 -0.359375 C 2.53125 -0.359375 2.347656 -0.523438 2.390625 -0.859375 C 2.847656 -5.210938 3.691406 -9.789062 4.921875 -14.59375 L 4.90625 -14.671875 C 3.394531 -14.546875 1.984375 -14.398438 0.671875 -14.234375 C 0.472656 -14.210938 0.3125 -14.242188 0.1875 -14.328125 C 0.0703125 -14.410156 0.0234375 -14.546875 0.046875 -14.734375 C 0.0546875 -14.921875 0.171875 -15.070312 0.390625 -15.1875 C 0.609375 -15.3125 0.84375 -15.40625 1.09375 -15.46875 C 2.363281 -15.84375 3.78125 -16.09375 5.34375 -16.21875 L 5.46875 -16.5625 C 5.519531 -16.75 5.703125 -16.910156 6.015625 -17.046875 C 6.335938 -17.179688 6.648438 -17.25 6.953125 -17.25 C 7.148438 -17.25 7.304688 -17.207031 7.421875 -17.125 C 7.535156 -17.050781 7.570312 -16.941406 7.53125 -16.796875 L 7.40625 -16.34375 L 8.34375 -16.359375 C 9.3125 -16.359375 10.414062 -16.3125 11.65625 -16.21875 Z M 11.65625 -16.21875 "/></g></g></g><g fill="#000000" fill-opacity="1"><g transform="translate(176.914168, 85.339147)"><g><path d="M 8.703125 -12.953125 C 8.910156 -12.878906 9.007812 -12.738281 9 -12.53125 C 8.625 -8.976562 8.082031 -5.28125 7.375 -1.4375 C 7.3125 -1.175781 7.117188 -0.957031 6.796875 -0.78125 C 6.484375 -0.613281 6.171875 -0.53125 5.859375 -0.53125 C 5.660156 -0.53125 5.5 -0.570312 5.375 -0.65625 C 5.257812 -0.75 5.222656 -0.875 5.265625 -1.03125 C 5.578125 -2.40625 5.835938 -3.8125 6.046875 -5.25 C 6.265625 -6.695312 6.472656 -8.359375 6.671875 -10.234375 C 5.585938 -9.222656 4.503906 -8.125 3.421875 -6.9375 L 2.328125 -0.890625 C 2.273438 -0.640625 2.082031 -0.421875 1.75 -0.234375 C 1.414062 -0.046875 1.082031 0.046875 0.75 0.046875 C 0.550781 0.046875 0.398438 0.00390625 0.296875 -0.078125 C 0.191406 -0.171875 0.148438 -0.304688 0.171875 -0.484375 L 1.15625 -5.9375 C 0.988281 -5.976562 0.90625 -6.070312 0.90625 -6.21875 C 0.90625 -6.320312 0.96875 -6.453125 1.09375 -6.609375 L 1.328125 -6.9375 L 3.125 -16.640625 C 3.15625 -16.878906 3.335938 -17.082031 3.671875 -17.25 C 4.003906 -17.425781 4.328125 -17.515625 4.640625 -17.515625 C 4.828125 -17.515625 4.972656 -17.472656 5.078125 -17.390625 C 5.191406 -17.316406 5.234375 -17.207031 5.203125 -17.0625 L 3.9375 -9.875 C 4.914062 -10.851562 6.003906 -11.785156 7.203125 -12.671875 C 7.585938 -12.929688 7.945312 -13.0625 8.28125 -13.0625 C 8.4375 -13.0625 8.578125 -13.023438 8.703125 -12.953125 Z M 8.703125 -12.953125 "/></g></g></g><g fill="#000000" fill-opacity="1"><g transform="translate(186.746826, 85.339147)"><g><path d="M 5.734375 -11.421875 C 5.054688 -10.898438 4.507812 -10.066406 4.09375 -8.921875 C 5.382812 -9.410156 6.554688 -9.816406 7.609375 -10.140625 C 7.171875 -10.753906 6.726562 -11.164062 6.28125 -11.375 C 6.1875 -11.414062 6.09375 -11.441406 6 -11.453125 C 5.914062 -11.472656 5.867188 -11.484375 5.859375 -11.484375 C 5.867188 -11.460938 5.859375 -11.445312 5.828125 -11.4375 C 5.796875 -11.425781 5.765625 -11.421875 5.734375 -11.421875 Z M 5.8125 -12.828125 C 6.03125 -12.878906 6.257812 -12.90625 6.5 -12.90625 C 7.769531 -12.90625 8.921875 -12.050781 9.953125 -10.34375 C 9.992188 -10.289062 10.015625 -10.222656 10.015625 -10.140625 C 10.015625 -9.992188 9.921875 -9.84375 9.734375 -9.6875 C 9.585938 -9.53125 9.398438 -9.40625 9.171875 -9.3125 C 7.847656 -8.726562 6.007812 -8.035156 3.65625 -7.234375 C 3.519531 -6.554688 3.453125 -5.859375 3.453125 -5.140625 C 3.453125 -4.804688 3.457031 -4.566406 3.46875 -4.421875 C 3.5 -3.828125 3.617188 -3.3125 3.828125 -2.875 C 3.898438 -2.726562 4 -2.585938 4.125 -2.453125 C 4.25 -2.328125 4.34375 -2.242188 4.40625 -2.203125 C 4.445312 -2.179688 4.515625 -2.171875 4.609375 -2.171875 C 4.703125 -2.171875 4.8125 -2.195312 4.9375 -2.25 C 5.0625 -2.300781 5.203125 -2.375 5.359375 -2.46875 C 5.742188 -2.6875 6.101562 -2.941406 6.4375 -3.234375 C 6.769531 -3.523438 7.164062 -3.90625 7.625 -4.375 C 7.8125 -4.550781 8.125 -4.640625 8.5625 -4.640625 C 8.800781 -4.640625 9 -4.601562 9.15625 -4.53125 C 9.320312 -4.457031 9.40625 -4.359375 9.40625 -4.234375 C 9.40625 -4.109375 9.34375 -3.972656 9.21875 -3.828125 C 8.394531 -2.941406 7.550781 -2.1875 6.6875 -1.5625 C 5.832031 -0.945312 4.972656 -0.640625 4.109375 -0.640625 C 3.703125 -0.640625 3.316406 -0.722656 2.953125 -0.890625 C 2.359375 -1.171875 1.925781 -1.613281 1.65625 -2.21875 C 1.394531 -2.832031 1.265625 -3.550781 1.265625 -4.375 C 1.265625 -4.976562 1.347656 -5.691406 1.515625 -6.515625 L 1.34375 -6.46875 L 1.1875 -6.421875 C 0.988281 -6.347656 0.832031 -6.3125 0.71875 -6.3125 C 0.53125 -6.3125 0.382812 -6.359375 0.28125 -6.453125 C 0.175781 -6.546875 0.125 -6.664062 0.125 -6.8125 C 0.125 -6.976562 0.191406 -7.144531 0.328125 -7.3125 C 0.460938 -7.476562 0.671875 -7.613281 0.953125 -7.71875 L 1.921875 -8.109375 C 2.046875 -8.472656 2.226562 -8.953125 2.46875 -9.546875 C 2.832031 -10.367188 3.289062 -11.078125 3.84375 -11.671875 C 4.40625 -12.273438 5.0625 -12.660156 5.8125 -12.828125 Z M 5.8125 -12.828125 "/></g></g></g><g fill="#000000" fill-opacity="1"><g transform="translate(196.48016, 85.339147)"><g/></g></g><g fill="#000000" fill-opacity="1"><g transform="translate(201.962615, 85.339147)"><g><path d="M 11.578125 -16.1875 C 11.671875 -16.375 11.863281 -16.53125 12.15625 -16.65625 C 12.457031 -16.78125 12.753906 -16.84375 13.046875 -16.84375 C 13.453125 -16.84375 13.65625 -16.722656 13.65625 -16.484375 C 13.65625 -16.390625 13.628906 -16.296875 13.578125 -16.203125 C 12.765625 -14.640625 12.050781 -13.035156 11.4375 -11.390625 C 10.832031 -9.753906 10.140625 -7.695312 9.359375 -5.21875 C 8.796875 -3.445312 8.363281 -2.125 8.0625 -1.25 C 8 -1.0625 7.804688 -0.878906 7.484375 -0.703125 C 7.171875 -0.535156 6.875 -0.453125 6.59375 -0.453125 C 6.257812 -0.453125 6.066406 -0.59375 6.015625 -0.875 C 5.585938 -3.007812 5.335938 -5.265625 5.265625 -7.640625 L 2.515625 -1.328125 C 2.441406 -1.140625 2.234375 -0.960938 1.890625 -0.796875 C 1.554688 -0.640625 1.25 -0.5625 0.96875 -0.5625 C 0.78125 -0.5625 0.632812 -0.601562 0.53125 -0.6875 C 0.425781 -0.78125 0.390625 -0.921875 0.421875 -1.109375 C 0.597656 -2.679688 0.863281 -5.046875 1.21875 -8.203125 L 1.984375 -15.296875 C 2.015625 -15.535156 2.191406 -15.742188 2.515625 -15.921875 C 2.847656 -16.097656 3.175781 -16.1875 3.5 -16.1875 C 3.695312 -16.1875 3.847656 -16.144531 3.953125 -16.0625 C 4.054688 -15.988281 4.101562 -15.867188 4.09375 -15.703125 C 3.875 -13.742188 3.582031 -11.097656 3.21875 -7.765625 C 3.71875 -8.898438 4.457031 -10.609375 5.4375 -12.890625 C 5.519531 -13.078125 5.722656 -13.25 6.046875 -13.40625 C 6.378906 -13.5625 6.691406 -13.640625 6.984375 -13.640625 C 7.171875 -13.640625 7.3125 -13.59375 7.40625 -13.5 C 7.507812 -13.40625 7.554688 -13.269531 7.546875 -13.09375 C 7.398438 -11.65625 7.328125 -10.269531 7.328125 -8.9375 C 7.328125 -7.925781 7.367188 -6.925781 7.453125 -5.9375 C 8.109375 -8.019531 8.753906 -9.878906 9.390625 -11.515625 C 10.023438 -13.160156 10.753906 -14.71875 11.578125 -16.1875 Z M 11.578125 -16.1875 "/></g></g></g><g fill="#000000" fill-opacity="1"><g transform="translate(213.364525, 85.339147)"><g><path d="M 7.921875 -7.671875 C 7.921875 -9.066406 7.101562 -10.171875 5.46875 -10.984375 C 5.050781 -10.640625 4.640625 -10.179688 4.234375 -9.609375 C 3.722656 -8.878906 3.304688 -8.066406 2.984375 -7.171875 C 2.847656 -6.816406 2.71875 -6.328125 2.59375 -5.703125 C 2.476562 -5.085938 2.421875 -4.515625 2.421875 -3.984375 C 2.421875 -3.441406 2.492188 -3.007812 2.640625 -2.6875 C 2.796875 -2.363281 3.046875 -2.203125 3.390625 -2.203125 C 3.671875 -2.203125 4 -2.316406 4.375 -2.546875 C 5.382812 -3.140625 6.226562 -3.878906 6.90625 -4.765625 C 7.582031 -5.648438 7.921875 -6.617188 7.921875 -7.671875 Z M 8.484375 -11.265625 C 8.953125 -10.804688 9.316406 -10.289062 9.578125 -9.71875 C 9.835938 -9.15625 9.96875 -8.554688 9.96875 -7.921875 C 9.96875 -7.003906 9.703125 -6.078125 9.171875 -5.140625 C 8.816406 -4.503906 8.296875 -3.832031 7.609375 -3.125 C 6.921875 -2.425781 6.15625 -1.835938 5.3125 -1.359375 C 4.46875 -0.878906 3.664062 -0.640625 2.90625 -0.640625 C 2.425781 -0.640625 1.972656 -0.742188 1.546875 -0.953125 C 0.648438 -1.441406 0.203125 -2.320312 0.203125 -3.59375 C 0.203125 -4.507812 0.40625 -5.507812 0.8125 -6.59375 C 1.226562 -7.6875 1.664062 -8.613281 2.125 -9.375 C 3.25 -11.15625 4.4375 -12.28125 5.6875 -12.75 C 6.03125 -12.882812 6.398438 -12.953125 6.796875 -12.953125 C 7.253906 -12.953125 7.640625 -12.832031 7.953125 -12.59375 C 8.273438 -12.363281 8.460938 -12.003906 8.515625 -11.515625 L 8.515625 -11.4375 C 8.515625 -11.394531 8.503906 -11.335938 8.484375 -11.265625 Z M 8.484375 -11.265625 "/></g></g></g><g fill="#000000" fill-opacity="1"><g transform="translate(222.998548, 85.339147)"><g><path d="M 6 -13.109375 C 6.382812 -13.265625 6.734375 -13.34375 7.046875 -13.34375 C 7.390625 -13.34375 7.664062 -13.253906 7.875 -13.078125 C 8.09375 -12.898438 8.203125 -12.613281 8.203125 -12.21875 C 8.203125 -11.832031 8.140625 -11.410156 8.015625 -10.953125 C 7.898438 -10.503906 7.738281 -9.976562 7.53125 -9.375 L 7.25 -8.546875 C 7.164062 -8.285156 6.957031 -8.066406 6.625 -7.890625 C 6.300781 -7.722656 5.988281 -7.640625 5.6875 -7.640625 C 5.476562 -7.640625 5.320312 -7.679688 5.21875 -7.765625 C 5.125 -7.859375 5.101562 -7.988281 5.15625 -8.15625 C 5.394531 -8.90625 5.632812 -9.726562 5.875 -10.625 C 5.925781 -11.03125 5.96875 -11.300781 6 -11.4375 L 5.921875 -11.359375 C 4.898438 -10.484375 3.96875 -9.382812 3.125 -8.0625 C 2.738281 -5.957031 2.5 -3.847656 2.40625 -1.734375 C 2.394531 -1.472656 2.222656 -1.25 1.890625 -1.0625 C 1.566406 -0.875 1.234375 -0.78125 0.890625 -0.78125 C 0.691406 -0.78125 0.523438 -0.820312 0.390625 -0.90625 C 0.265625 -1 0.207031 -1.140625 0.21875 -1.328125 C 0.320312 -3.234375 0.523438 -5.085938 0.828125 -6.890625 C 0.703125 -6.984375 0.640625 -7.085938 0.640625 -7.203125 C 0.640625 -7.285156 0.664062 -7.375 0.71875 -7.46875 L 1.015625 -7.96875 C 1.304688 -9.488281 1.660156 -11.015625 2.078125 -12.546875 C 2.148438 -12.785156 2.359375 -12.992188 2.703125 -13.171875 C 3.054688 -13.347656 3.394531 -13.4375 3.71875 -13.4375 C 3.914062 -13.4375 4.066406 -13.394531 4.171875 -13.3125 C 4.273438 -13.238281 4.300781 -13.125 4.25 -12.96875 C 4.039062 -12.226562 3.910156 -11.738281 3.859375 -11.5 C 4.648438 -12.289062 5.363281 -12.828125 6 -13.109375 Z M 6 -13.109375 "/></g></g></g><g fill="#000000" fill-opacity="1"><g transform="translate(230.348214, 85.339147)"><g><path d="M 2.171875 -16.640625 C 2.191406 -16.890625 2.363281 -17.101562 2.6875 -17.28125 C 3.007812 -17.46875 3.332031 -17.5625 3.65625 -17.5625 C 3.851562 -17.5625 4.003906 -17.519531 4.109375 -17.4375 C 4.210938 -17.351562 4.257812 -17.226562 4.25 -17.0625 C 3.863281 -13.601562 3.46875 -10.144531 3.0625 -6.6875 L 2.46875 -1.515625 C 2.4375 -1.253906 2.253906 -1.03125 1.921875 -0.84375 C 1.597656 -0.664062 1.269531 -0.578125 0.9375 -0.578125 C 0.488281 -0.578125 0.28125 -0.75 0.3125 -1.09375 L 1.25 -8.875 C 1.675781 -12.53125 1.984375 -15.117188 2.171875 -16.640625 Z M 2.171875 -16.640625 "/></g></g></g><g fill="#000000" fill-opacity="1"><g transform="translate(234.360729, 85.339147)"><g><path d="M 2.84375 -2.4375 C 3.09375 -2.238281 3.414062 -2.140625 3.8125 -2.140625 C 4.28125 -2.140625 4.867188 -2.296875 5.578125 -2.609375 C 6.003906 -5.054688 6.335938 -7.460938 6.578125 -9.828125 L 6.53125 -9.828125 C 5.820312 -9.828125 5.164062 -9.582031 4.5625 -9.09375 C 3.96875 -8.601562 3.472656 -7.992188 3.078125 -7.265625 C 2.691406 -6.535156 2.425781 -5.816406 2.28125 -5.109375 C 2.21875 -4.773438 2.1875 -4.445312 2.1875 -4.125 C 2.1875 -3.34375 2.40625 -2.78125 2.84375 -2.4375 Z M 7.046875 -16.125 C 7.054688 -16.363281 7.21875 -16.570312 7.53125 -16.75 C 7.851562 -16.925781 8.179688 -17.015625 8.515625 -17.015625 C 8.929688 -17.015625 9.128906 -16.863281 9.109375 -16.5625 C 8.890625 -12.195312 8.414062 -7.6875 7.6875 -3.03125 C 7.894531 -2.925781 8 -2.789062 8 -2.625 C 8 -2.425781 7.84375 -2.234375 7.53125 -2.046875 L 7.40625 -1.3125 C 7.351562 -1.0625 7.164062 -0.84375 6.84375 -0.65625 C 6.519531 -0.476562 6.195312 -0.390625 5.875 -0.390625 C 5.675781 -0.390625 5.515625 -0.429688 5.390625 -0.515625 C 5.273438 -0.609375 5.238281 -0.738281 5.28125 -0.90625 C 5.28125 -0.976562 5.285156 -1.023438 5.296875 -1.046875 C 4.453125 -0.785156 3.753906 -0.65625 3.203125 -0.65625 C 2.585938 -0.65625 2.035156 -0.785156 1.546875 -1.046875 C 1.054688 -1.304688 0.695312 -1.671875 0.46875 -2.140625 C 0.25 -2.617188 0.140625 -3.15625 0.140625 -3.75 C 0.140625 -3.96875 0.164062 -4.257812 0.21875 -4.625 C 0.40625 -5.695312 0.800781 -6.726562 1.40625 -7.71875 C 2.019531 -8.71875 2.789062 -9.535156 3.71875 -10.171875 C 4.644531 -10.804688 5.644531 -11.144531 6.71875 -11.1875 C 6.875 -13 6.984375 -14.644531 7.046875 -16.125 Z M 7.046875 -16.125 "/></g></g></g></svg>